<?xml version="1.0" encoding="utf-8" standalone="no"?>
<!DOCTYPE svg PUBLIC "-//W3C//DTD SVG 1.1//EN"
  "http://www.w3.org/Graphics/SVG/1.1/DTD/svg11.dtd">
<!-- Created with matplotlib (http://matplotlib.org/) -->
<svg height="720pt" version="1.1" viewBox="0 0 1152 720" width="1152pt" xmlns="http://www.w3.org/2000/svg" xmlns:xlink="http://www.w3.org/1999/xlink">
 <defs>
  <style type="text/css">
*{stroke-linecap:butt;stroke-linejoin:round;}
  </style>
 </defs>
 <g id="figure_1">
  <g id="patch_1">
   <path d="M 0 720 
L 1152 720 
L 1152 0 
L 0 0 
z
" style="fill:#ffffff;"/>
  </g>
  <g id="axes_1">
   <g id="patch_2">
    <path d="M 144 630 
L 1036.8 630 
L 1036.8 86.4 
L 144 86.4 
z
" style="fill:#ffffff;"/>
   </g>
   <g id="matplotlib.axis_1">
    <g id="xtick_1">
     <g id="line2d_1">
      <defs>
       <path d="M 0 0 
L 0 3.5 
" id="m3e8b1a81e7" style="stroke:#000000;stroke-width:0.8;"/>
      </defs>
      <g>
       <use style="stroke:#000000;stroke-width:0.8;" x="182.018216" xlink:href="#m3e8b1a81e7" y="630"/>
      </g>
     </g>
     <g id="text_1">
      <!-- 0.000 -->
      <defs>
       <path d="M 31.78125 66.40625 
Q 24.171875 66.40625 20.328125 58.90625 
Q 16.5 51.421875 16.5 36.375 
Q 16.5 21.390625 20.328125 13.890625 
Q 24.171875 6.390625 31.78125 6.390625 
Q 39.453125 6.390625 43.28125 13.890625 
Q 47.125 21.390625 47.125 36.375 
Q 47.125 51.421875 43.28125 58.90625 
Q 39.453125 66.40625 31.78125 66.40625 
z
M 31.78125 74.21875 
Q 44.046875 74.21875 50.515625 64.515625 
Q 56.984375 54.828125 56.984375 36.375 
Q 56.984375 17.96875 50.515625 8.265625 
Q 44.046875 -1.421875 31.78125 -1.421875 
Q 19.53125 -1.421875 13.0625 8.265625 
Q 6.59375 17.96875 6.59375 36.375 
Q 6.59375 54.828125 13.0625 64.515625 
Q 19.53125 74.21875 31.78125 74.21875 
z
" id="DejaVuSans-30"/>
       <path d="M 10.6875 12.40625 
L 21 12.40625 
L 21 0 
L 10.6875 0 
z
" id="DejaVuSans-2e"/>
      </defs>
      <g transform="translate(167.704154 644.598438)scale(0.1 -0.1)">
       <use xlink:href="#DejaVuSans-30"/>
       <use x="63.623047" xlink:href="#DejaVuSans-2e"/>
       <use x="95.410156" xlink:href="#DejaVuSans-30"/>
       <use x="159.033203" xlink:href="#DejaVuSans-30"/>
       <use x="222.65625" xlink:href="#DejaVuSans-30"/>
      </g>
     </g>
    </g>
    <g id="xtick_2">
     <g id="line2d_2">
      <g>
       <use style="stroke:#000000;stroke-width:0.8;" x="292.765819" xlink:href="#m3e8b1a81e7" y="630"/>
      </g>
     </g>
     <g id="text_2">
      <!-- 0.025 -->
      <defs>
       <path d="M 19.1875 8.296875 
L 53.609375 8.296875 
L 53.609375 0 
L 7.328125 0 
L 7.328125 8.296875 
Q 12.9375 14.109375 22.625 23.890625 
Q 32.328125 33.6875 34.8125 36.53125 
Q 39.546875 41.84375 41.421875 45.53125 
Q 43.3125 49.21875 43.3125 52.78125 
Q 43.3125 58.59375 39.234375 62.25 
Q 35.15625 65.921875 28.609375 65.921875 
Q 23.96875 65.921875 18.8125 64.3125 
Q 13.671875 62.703125 7.8125 59.421875 
L 7.8125 69.390625 
Q 13.765625 71.78125 18.9375 73 
Q 24.125 74.21875 28.421875 74.21875 
Q 39.75 74.21875 46.484375 68.546875 
Q 53.21875 62.890625 53.21875 53.421875 
Q 53.21875 48.921875 51.53125 44.890625 
Q 49.859375 40.875 45.40625 35.40625 
Q 44.1875 33.984375 37.640625 27.21875 
Q 31.109375 20.453125 19.1875 8.296875 
z
" id="DejaVuSans-32"/>
       <path d="M 10.796875 72.90625 
L 49.515625 72.90625 
L 49.515625 64.59375 
L 19.828125 64.59375 
L 19.828125 46.734375 
Q 21.96875 47.46875 24.109375 47.828125 
Q 26.265625 48.1875 28.421875 48.1875 
Q 40.625 48.1875 47.75 41.5 
Q 54.890625 34.8125 54.890625 23.390625 
Q 54.890625 11.625 47.5625 5.09375 
Q 40.234375 -1.421875 26.90625 -1.421875 
Q 22.3125 -1.421875 17.546875 -0.640625 
Q 12.796875 0.140625 7.71875 1.703125 
L 7.71875 11.625 
Q 12.109375 9.234375 16.796875 8.0625 
Q 21.484375 6.890625 26.703125 6.890625 
Q 35.15625 6.890625 40.078125 11.328125 
Q 45.015625 15.765625 45.015625 23.390625 
Q 45.015625 31 40.078125 35.4375 
Q 35.15625 39.890625 26.703125 39.890625 
Q 22.75 39.890625 18.8125 39.015625 
Q 14.890625 38.140625 10.796875 36.28125 
z
" id="DejaVuSans-35"/>
      </defs>
      <g transform="translate(278.451756 644.598438)scale(0.1 -0.1)">
       <use xlink:href="#DejaVuSans-30"/>
       <use x="63.623047" xlink:href="#DejaVuSans-2e"/>
       <use x="95.410156" xlink:href="#DejaVuSans-30"/>
       <use x="159.033203" xlink:href="#DejaVuSans-32"/>
       <use x="222.65625" xlink:href="#DejaVuSans-35"/>
      </g>
     </g>
    </g>
    <g id="xtick_3">
     <g id="line2d_3">
      <g>
       <use style="stroke:#000000;stroke-width:0.8;" x="403.513421" xlink:href="#m3e8b1a81e7" y="630"/>
      </g>
     </g>
     <g id="text_3">
      <!-- 0.050 -->
      <g transform="translate(389.199359 644.598438)scale(0.1 -0.1)">
       <use xlink:href="#DejaVuSans-30"/>
       <use x="63.623047" xlink:href="#DejaVuSans-2e"/>
       <use x="95.410156" xlink:href="#DejaVuSans-30"/>
       <use x="159.033203" xlink:href="#DejaVuSans-35"/>
       <use x="222.65625" xlink:href="#DejaVuSans-30"/>
      </g>
     </g>
    </g>
    <g id="xtick_4">
     <g id="line2d_4">
      <g>
       <use style="stroke:#000000;stroke-width:0.8;" x="514.261023" xlink:href="#m3e8b1a81e7" y="630"/>
      </g>
     </g>
     <g id="text_4">
      <!-- 0.075 -->
      <defs>
       <path d="M 8.203125 72.90625 
L 55.078125 72.90625 
L 55.078125 68.703125 
L 28.609375 0 
L 18.3125 0 
L 43.21875 64.59375 
L 8.203125 64.59375 
z
" id="DejaVuSans-37"/>
      </defs>
      <g transform="translate(499.946961 644.598438)scale(0.1 -0.1)">
       <use xlink:href="#DejaVuSans-30"/>
       <use x="63.623047" xlink:href="#DejaVuSans-2e"/>
       <use x="95.410156" xlink:href="#DejaVuSans-30"/>
       <use x="159.033203" xlink:href="#DejaVuSans-37"/>
       <use x="222.65625" xlink:href="#DejaVuSans-35"/>
      </g>
     </g>
    </g>
    <g id="xtick_5">
     <g id="line2d_5">
      <g>
       <use style="stroke:#000000;stroke-width:0.8;" x="625.008626" xlink:href="#m3e8b1a81e7" y="630"/>
      </g>
     </g>
     <g id="text_5">
      <!-- 0.100 -->
      <defs>
       <path d="M 12.40625 8.296875 
L 28.515625 8.296875 
L 28.515625 63.921875 
L 10.984375 60.40625 
L 10.984375 69.390625 
L 28.421875 72.90625 
L 38.28125 72.90625 
L 38.28125 8.296875 
L 54.390625 8.296875 
L 54.390625 0 
L 12.40625 0 
z
" id="DejaVuSans-31"/>
      </defs>
      <g transform="translate(610.694563 644.598438)scale(0.1 -0.1)">
       <use xlink:href="#DejaVuSans-30"/>
       <use x="63.623047" xlink:href="#DejaVuSans-2e"/>
       <use x="95.410156" xlink:href="#DejaVuSans-31"/>
       <use x="159.033203" xlink:href="#DejaVuSans-30"/>
       <use x="222.65625" xlink:href="#DejaVuSans-30"/>
      </g>
     </g>
    </g>
    <g id="xtick_6">
     <g id="line2d_6">
      <g>
       <use style="stroke:#000000;stroke-width:0.8;" x="735.756228" xlink:href="#m3e8b1a81e7" y="630"/>
      </g>
     </g>
     <g id="text_6">
      <!-- 0.125 -->
      <g transform="translate(721.442166 644.598438)scale(0.1 -0.1)">
       <use xlink:href="#DejaVuSans-30"/>
       <use x="63.623047" xlink:href="#DejaVuSans-2e"/>
       <use x="95.410156" xlink:href="#DejaVuSans-31"/>
       <use x="159.033203" xlink:href="#DejaVuSans-32"/>
       <use x="222.65625" xlink:href="#DejaVuSans-35"/>
      </g>
     </g>
    </g>
    <g id="xtick_7">
     <g id="line2d_7">
      <g>
       <use style="stroke:#000000;stroke-width:0.8;" x="846.50383" xlink:href="#m3e8b1a81e7" y="630"/>
      </g>
     </g>
     <g id="text_7">
      <!-- 0.150 -->
      <g transform="translate(832.189768 644.598438)scale(0.1 -0.1)">
       <use xlink:href="#DejaVuSans-30"/>
       <use x="63.623047" xlink:href="#DejaVuSans-2e"/>
       <use x="95.410156" xlink:href="#DejaVuSans-31"/>
       <use x="159.033203" xlink:href="#DejaVuSans-35"/>
       <use x="222.65625" xlink:href="#DejaVuSans-30"/>
      </g>
     </g>
    </g>
    <g id="xtick_8">
     <g id="line2d_8">
      <g>
       <use style="stroke:#000000;stroke-width:0.8;" x="957.251433" xlink:href="#m3e8b1a81e7" y="630"/>
      </g>
     </g>
     <g id="text_8">
      <!-- 0.175 -->
      <g transform="translate(942.93737 644.598438)scale(0.1 -0.1)">
       <use xlink:href="#DejaVuSans-30"/>
       <use x="63.623047" xlink:href="#DejaVuSans-2e"/>
       <use x="95.410156" xlink:href="#DejaVuSans-31"/>
       <use x="159.033203" xlink:href="#DejaVuSans-37"/>
       <use x="222.65625" xlink:href="#DejaVuSans-35"/>
      </g>
     </g>
    </g>
    <g id="text_9">
     <!-- wall-clock time (days) -->
     <defs>
      <path d="M 4.203125 54.6875 
L 13.1875 54.6875 
L 24.421875 12.015625 
L 35.59375 54.6875 
L 46.1875 54.6875 
L 57.421875 12.015625 
L 68.609375 54.6875 
L 77.59375 54.6875 
L 63.28125 0 
L 52.6875 0 
L 40.921875 44.828125 
L 29.109375 0 
L 18.5 0 
z
" id="DejaVuSans-77"/>
      <path d="M 34.28125 27.484375 
Q 23.390625 27.484375 19.1875 25 
Q 14.984375 22.515625 14.984375 16.5 
Q 14.984375 11.71875 18.140625 8.90625 
Q 21.296875 6.109375 26.703125 6.109375 
Q 34.1875 6.109375 38.703125 11.40625 
Q 43.21875 16.703125 43.21875 25.484375 
L 43.21875 27.484375 
z
M 52.203125 31.203125 
L 52.203125 0 
L 43.21875 0 
L 43.21875 8.296875 
Q 40.140625 3.328125 35.546875 0.953125 
Q 30.953125 -1.421875 24.3125 -1.421875 
Q 15.921875 -1.421875 10.953125 3.296875 
Q 6 8.015625 6 15.921875 
Q 6 25.140625 12.171875 29.828125 
Q 18.359375 34.515625 30.609375 34.515625 
L 43.21875 34.515625 
L 43.21875 35.40625 
Q 43.21875 41.609375 39.140625 45 
Q 35.0625 48.390625 27.6875 48.390625 
Q 23 48.390625 18.546875 47.265625 
Q 14.109375 46.140625 10.015625 43.890625 
L 10.015625 52.203125 
Q 14.9375 54.109375 19.578125 55.046875 
Q 24.21875 56 28.609375 56 
Q 40.484375 56 46.34375 49.84375 
Q 52.203125 43.703125 52.203125 31.203125 
z
" id="DejaVuSans-61"/>
      <path d="M 9.421875 75.984375 
L 18.40625 75.984375 
L 18.40625 0 
L 9.421875 0 
z
" id="DejaVuSans-6c"/>
      <path d="M 4.890625 31.390625 
L 31.203125 31.390625 
L 31.203125 23.390625 
L 4.890625 23.390625 
z
" id="DejaVuSans-2d"/>
      <path d="M 48.78125 52.59375 
L 48.78125 44.1875 
Q 44.96875 46.296875 41.140625 47.34375 
Q 37.3125 48.390625 33.40625 48.390625 
Q 24.65625 48.390625 19.8125 42.84375 
Q 14.984375 37.3125 14.984375 27.296875 
Q 14.984375 17.28125 19.8125 11.734375 
Q 24.65625 6.203125 33.40625 6.203125 
Q 37.3125 6.203125 41.140625 7.25 
Q 44.96875 8.296875 48.78125 10.40625 
L 48.78125 2.09375 
Q 45.015625 0.34375 40.984375 -0.53125 
Q 36.96875 -1.421875 32.421875 -1.421875 
Q 20.0625 -1.421875 12.78125 6.34375 
Q 5.515625 14.109375 5.515625 27.296875 
Q 5.515625 40.671875 12.859375 48.328125 
Q 20.21875 56 33.015625 56 
Q 37.15625 56 41.109375 55.140625 
Q 45.0625 54.296875 48.78125 52.59375 
z
" id="DejaVuSans-63"/>
      <path d="M 30.609375 48.390625 
Q 23.390625 48.390625 19.1875 42.75 
Q 14.984375 37.109375 14.984375 27.296875 
Q 14.984375 17.484375 19.15625 11.84375 
Q 23.34375 6.203125 30.609375 6.203125 
Q 37.796875 6.203125 41.984375 11.859375 
Q 46.1875 17.53125 46.1875 27.296875 
Q 46.1875 37.015625 41.984375 42.703125 
Q 37.796875 48.390625 30.609375 48.390625 
z
M 30.609375 56 
Q 42.328125 56 49.015625 48.375 
Q 55.71875 40.765625 55.71875 27.296875 
Q 55.71875 13.875 49.015625 6.21875 
Q 42.328125 -1.421875 30.609375 -1.421875 
Q 18.84375 -1.421875 12.171875 6.21875 
Q 5.515625 13.875 5.515625 27.296875 
Q 5.515625 40.765625 12.171875 48.375 
Q 18.84375 56 30.609375 56 
z
" id="DejaVuSans-6f"/>
      <path d="M 9.078125 75.984375 
L 18.109375 75.984375 
L 18.109375 31.109375 
L 44.921875 54.6875 
L 56.390625 54.6875 
L 27.390625 29.109375 
L 57.625 0 
L 45.90625 0 
L 18.109375 26.703125 
L 18.109375 0 
L 9.078125 0 
z
" id="DejaVuSans-6b"/>
      <path id="DejaVuSans-20"/>
      <path d="M 18.3125 70.21875 
L 18.3125 54.6875 
L 36.8125 54.6875 
L 36.8125 47.703125 
L 18.3125 47.703125 
L 18.3125 18.015625 
Q 18.3125 11.328125 20.140625 9.421875 
Q 21.96875 7.515625 27.59375 7.515625 
L 36.8125 7.515625 
L 36.8125 0 
L 27.59375 0 
Q 17.1875 0 13.234375 3.875 
Q 9.28125 7.765625 9.28125 18.015625 
L 9.28125 47.703125 
L 2.6875 47.703125 
L 2.6875 54.6875 
L 9.28125 54.6875 
L 9.28125 70.21875 
z
" id="DejaVuSans-74"/>
      <path d="M 9.421875 54.6875 
L 18.40625 54.6875 
L 18.40625 0 
L 9.421875 0 
z
M 9.421875 75.984375 
L 18.40625 75.984375 
L 18.40625 64.59375 
L 9.421875 64.59375 
z
" id="DejaVuSans-69"/>
      <path d="M 52 44.1875 
Q 55.375 50.25 60.0625 53.125 
Q 64.75 56 71.09375 56 
Q 79.640625 56 84.28125 50.015625 
Q 88.921875 44.046875 88.921875 33.015625 
L 88.921875 0 
L 79.890625 0 
L 79.890625 32.71875 
Q 79.890625 40.578125 77.09375 44.375 
Q 74.3125 48.1875 68.609375 48.1875 
Q 61.625 48.1875 57.5625 43.546875 
Q 53.515625 38.921875 53.515625 30.90625 
L 53.515625 0 
L 44.484375 0 
L 44.484375 32.71875 
Q 44.484375 40.625 41.703125 44.40625 
Q 38.921875 48.1875 33.109375 48.1875 
Q 26.21875 48.1875 22.15625 43.53125 
Q 18.109375 38.875 18.109375 30.90625 
L 18.109375 0 
L 9.078125 0 
L 9.078125 54.6875 
L 18.109375 54.6875 
L 18.109375 46.1875 
Q 21.1875 51.21875 25.484375 53.609375 
Q 29.78125 56 35.6875 56 
Q 41.65625 56 45.828125 52.96875 
Q 50 49.953125 52 44.1875 
z
" id="DejaVuSans-6d"/>
      <path d="M 56.203125 29.59375 
L 56.203125 25.203125 
L 14.890625 25.203125 
Q 15.484375 15.921875 20.484375 11.0625 
Q 25.484375 6.203125 34.421875 6.203125 
Q 39.59375 6.203125 44.453125 7.46875 
Q 49.3125 8.734375 54.109375 11.28125 
L 54.109375 2.78125 
Q 49.265625 0.734375 44.1875 -0.34375 
Q 39.109375 -1.421875 33.890625 -1.421875 
Q 20.796875 -1.421875 13.15625 6.1875 
Q 5.515625 13.8125 5.515625 26.8125 
Q 5.515625 40.234375 12.765625 48.109375 
Q 20.015625 56 32.328125 56 
Q 43.359375 56 49.78125 48.890625 
Q 56.203125 41.796875 56.203125 29.59375 
z
M 47.21875 32.234375 
Q 47.125 39.59375 43.09375 43.984375 
Q 39.0625 48.390625 32.421875 48.390625 
Q 24.90625 48.390625 20.390625 44.140625 
Q 15.875 39.890625 15.1875 32.171875 
z
" id="DejaVuSans-65"/>
      <path d="M 31 75.875 
Q 24.46875 64.65625 21.28125 53.65625 
Q 18.109375 42.671875 18.109375 31.390625 
Q 18.109375 20.125 21.3125 9.0625 
Q 24.515625 -2 31 -13.1875 
L 23.1875 -13.1875 
Q 15.875 -1.703125 12.234375 9.375 
Q 8.59375 20.453125 8.59375 31.390625 
Q 8.59375 42.28125 12.203125 53.3125 
Q 15.828125 64.359375 23.1875 75.875 
z
" id="DejaVuSans-28"/>
      <path d="M 45.40625 46.390625 
L 45.40625 75.984375 
L 54.390625 75.984375 
L 54.390625 0 
L 45.40625 0 
L 45.40625 8.203125 
Q 42.578125 3.328125 38.25 0.953125 
Q 33.9375 -1.421875 27.875 -1.421875 
Q 17.96875 -1.421875 11.734375 6.484375 
Q 5.515625 14.40625 5.515625 27.296875 
Q 5.515625 40.1875 11.734375 48.09375 
Q 17.96875 56 27.875 56 
Q 33.9375 56 38.25 53.625 
Q 42.578125 51.265625 45.40625 46.390625 
z
M 14.796875 27.296875 
Q 14.796875 17.390625 18.875 11.75 
Q 22.953125 6.109375 30.078125 6.109375 
Q 37.203125 6.109375 41.296875 11.75 
Q 45.40625 17.390625 45.40625 27.296875 
Q 45.40625 37.203125 41.296875 42.84375 
Q 37.203125 48.484375 30.078125 48.484375 
Q 22.953125 48.484375 18.875 42.84375 
Q 14.796875 37.203125 14.796875 27.296875 
z
" id="DejaVuSans-64"/>
      <path d="M 32.171875 -5.078125 
Q 28.375 -14.84375 24.75 -17.8125 
Q 21.140625 -20.796875 15.09375 -20.796875 
L 7.90625 -20.796875 
L 7.90625 -13.28125 
L 13.1875 -13.28125 
Q 16.890625 -13.28125 18.9375 -11.515625 
Q 21 -9.765625 23.484375 -3.21875 
L 25.09375 0.875 
L 2.984375 54.6875 
L 12.5 54.6875 
L 29.59375 11.921875 
L 46.6875 54.6875 
L 56.203125 54.6875 
z
" id="DejaVuSans-79"/>
      <path d="M 44.28125 53.078125 
L 44.28125 44.578125 
Q 40.484375 46.53125 36.375 47.5 
Q 32.28125 48.484375 27.875 48.484375 
Q 21.1875 48.484375 17.84375 46.4375 
Q 14.5 44.390625 14.5 40.28125 
Q 14.5 37.15625 16.890625 35.375 
Q 19.28125 33.59375 26.515625 31.984375 
L 29.59375 31.296875 
Q 39.15625 29.25 43.1875 25.515625 
Q 47.21875 21.78125 47.21875 15.09375 
Q 47.21875 7.46875 41.1875 3.015625 
Q 35.15625 -1.421875 24.609375 -1.421875 
Q 20.21875 -1.421875 15.453125 -0.5625 
Q 10.6875 0.296875 5.421875 2 
L 5.421875 11.28125 
Q 10.40625 8.6875 15.234375 7.390625 
Q 20.0625 6.109375 24.8125 6.109375 
Q 31.15625 6.109375 34.5625 8.28125 
Q 37.984375 10.453125 37.984375 14.40625 
Q 37.984375 18.0625 35.515625 20.015625 
Q 33.0625 21.96875 24.703125 23.78125 
L 21.578125 24.515625 
Q 13.234375 26.265625 9.515625 29.90625 
Q 5.8125 33.546875 5.8125 39.890625 
Q 5.8125 47.609375 11.28125 51.796875 
Q 16.75 56 26.8125 56 
Q 31.78125 56 36.171875 55.265625 
Q 40.578125 54.546875 44.28125 53.078125 
z
" id="DejaVuSans-73"/>
      <path d="M 8.015625 75.875 
L 15.828125 75.875 
Q 23.140625 64.359375 26.78125 53.3125 
Q 30.421875 42.28125 30.421875 31.390625 
Q 30.421875 20.453125 26.78125 9.375 
Q 23.140625 -1.703125 15.828125 -13.1875 
L 8.015625 -13.1875 
Q 14.5 -2 17.703125 9.0625 
Q 20.90625 20.125 20.90625 31.390625 
Q 20.90625 42.671875 17.703125 53.65625 
Q 14.5 64.65625 8.015625 75.875 
z
" id="DejaVuSans-29"/>
     </defs>
     <g transform="translate(535.644531 658.276562)scale(0.1 -0.1)">
      <use xlink:href="#DejaVuSans-77"/>
      <use x="81.787109" xlink:href="#DejaVuSans-61"/>
      <use x="143.066406" xlink:href="#DejaVuSans-6c"/>
      <use x="170.849609" xlink:href="#DejaVuSans-6c"/>
      <use x="198.632812" xlink:href="#DejaVuSans-2d"/>
      <use x="234.716797" xlink:href="#DejaVuSans-63"/>
      <use x="289.697266" xlink:href="#DejaVuSans-6c"/>
      <use x="317.480469" xlink:href="#DejaVuSans-6f"/>
      <use x="378.662109" xlink:href="#DejaVuSans-63"/>
      <use x="433.642578" xlink:href="#DejaVuSans-6b"/>
      <use x="491.552734" xlink:href="#DejaVuSans-20"/>
      <use x="523.339844" xlink:href="#DejaVuSans-74"/>
      <use x="562.548828" xlink:href="#DejaVuSans-69"/>
      <use x="590.332031" xlink:href="#DejaVuSans-6d"/>
      <use x="687.744141" xlink:href="#DejaVuSans-65"/>
      <use x="749.267578" xlink:href="#DejaVuSans-20"/>
      <use x="781.054688" xlink:href="#DejaVuSans-28"/>
      <use x="820.068359" xlink:href="#DejaVuSans-64"/>
      <use x="883.544922" xlink:href="#DejaVuSans-61"/>
      <use x="944.824219" xlink:href="#DejaVuSans-79"/>
      <use x="1004.003906" xlink:href="#DejaVuSans-73"/>
      <use x="1056.103516" xlink:href="#DejaVuSans-29"/>
     </g>
    </g>
   </g>
   <g id="matplotlib.axis_2">
    <g id="ytick_1">
     <g id="line2d_9">
      <defs>
       <path d="M 0 0 
L -3.5 0 
" id="m3989a7e4a9" style="stroke:#000000;stroke-width:0.8;"/>
      </defs>
      <g>
       <use style="stroke:#000000;stroke-width:0.8;" x="144" xlink:href="#m3989a7e4a9" y="617.403786"/>
      </g>
     </g>
     <g id="text_10">
      <!-- 200 -->
      <g transform="translate(117.9125 621.203005)scale(0.1 -0.1)">
       <use xlink:href="#DejaVuSans-32"/>
       <use x="63.623047" xlink:href="#DejaVuSans-30"/>
       <use x="127.246094" xlink:href="#DejaVuSans-30"/>
      </g>
     </g>
    </g>
    <g id="ytick_2">
     <g id="line2d_10">
      <g>
       <use style="stroke:#000000;stroke-width:0.8;" x="144" xlink:href="#m3989a7e4a9" y="536.13658"/>
      </g>
     </g>
     <g id="text_11">
      <!-- 400 -->
      <defs>
       <path d="M 37.796875 64.3125 
L 12.890625 25.390625 
L 37.796875 25.390625 
z
M 35.203125 72.90625 
L 47.609375 72.90625 
L 47.609375 25.390625 
L 58.015625 25.390625 
L 58.015625 17.1875 
L 47.609375 17.1875 
L 47.609375 0 
L 37.796875 0 
L 37.796875 17.1875 
L 4.890625 17.1875 
L 4.890625 26.703125 
z
" id="DejaVuSans-34"/>
      </defs>
      <g transform="translate(117.9125 539.935799)scale(0.1 -0.1)">
       <use xlink:href="#DejaVuSans-34"/>
       <use x="63.623047" xlink:href="#DejaVuSans-30"/>
       <use x="127.246094" xlink:href="#DejaVuSans-30"/>
      </g>
     </g>
    </g>
    <g id="ytick_3">
     <g id="line2d_11">
      <g>
       <use style="stroke:#000000;stroke-width:0.8;" x="144" xlink:href="#m3989a7e4a9" y="454.869374"/>
      </g>
     </g>
     <g id="text_12">
      <!-- 600 -->
      <defs>
       <path d="M 33.015625 40.375 
Q 26.375 40.375 22.484375 35.828125 
Q 18.609375 31.296875 18.609375 23.390625 
Q 18.609375 15.53125 22.484375 10.953125 
Q 26.375 6.390625 33.015625 6.390625 
Q 39.65625 6.390625 43.53125 10.953125 
Q 47.40625 15.53125 47.40625 23.390625 
Q 47.40625 31.296875 43.53125 35.828125 
Q 39.65625 40.375 33.015625 40.375 
z
M 52.59375 71.296875 
L 52.59375 62.3125 
Q 48.875 64.0625 45.09375 64.984375 
Q 41.3125 65.921875 37.59375 65.921875 
Q 27.828125 65.921875 22.671875 59.328125 
Q 17.53125 52.734375 16.796875 39.40625 
Q 19.671875 43.65625 24.015625 45.921875 
Q 28.375 48.1875 33.59375 48.1875 
Q 44.578125 48.1875 50.953125 41.515625 
Q 57.328125 34.859375 57.328125 23.390625 
Q 57.328125 12.15625 50.6875 5.359375 
Q 44.046875 -1.421875 33.015625 -1.421875 
Q 20.359375 -1.421875 13.671875 8.265625 
Q 6.984375 17.96875 6.984375 36.375 
Q 6.984375 53.65625 15.1875 63.9375 
Q 23.390625 74.21875 37.203125 74.21875 
Q 40.921875 74.21875 44.703125 73.484375 
Q 48.484375 72.75 52.59375 71.296875 
z
" id="DejaVuSans-36"/>
      </defs>
      <g transform="translate(117.9125 458.668592)scale(0.1 -0.1)">
       <use xlink:href="#DejaVuSans-36"/>
       <use x="63.623047" xlink:href="#DejaVuSans-30"/>
       <use x="127.246094" xlink:href="#DejaVuSans-30"/>
      </g>
     </g>
    </g>
    <g id="ytick_4">
     <g id="line2d_12">
      <g>
       <use style="stroke:#000000;stroke-width:0.8;" x="144" xlink:href="#m3989a7e4a9" y="373.602167"/>
      </g>
     </g>
     <g id="text_13">
      <!-- 800 -->
      <defs>
       <path d="M 31.78125 34.625 
Q 24.75 34.625 20.71875 30.859375 
Q 16.703125 27.09375 16.703125 20.515625 
Q 16.703125 13.921875 20.71875 10.15625 
Q 24.75 6.390625 31.78125 6.390625 
Q 38.8125 6.390625 42.859375 10.171875 
Q 46.921875 13.96875 46.921875 20.515625 
Q 46.921875 27.09375 42.890625 30.859375 
Q 38.875 34.625 31.78125 34.625 
z
M 21.921875 38.8125 
Q 15.578125 40.375 12.03125 44.71875 
Q 8.5 49.078125 8.5 55.328125 
Q 8.5 64.0625 14.71875 69.140625 
Q 20.953125 74.21875 31.78125 74.21875 
Q 42.671875 74.21875 48.875 69.140625 
Q 55.078125 64.0625 55.078125 55.328125 
Q 55.078125 49.078125 51.53125 44.71875 
Q 48 40.375 41.703125 38.8125 
Q 48.828125 37.15625 52.796875 32.3125 
Q 56.78125 27.484375 56.78125 20.515625 
Q 56.78125 9.90625 50.3125 4.234375 
Q 43.84375 -1.421875 31.78125 -1.421875 
Q 19.734375 -1.421875 13.25 4.234375 
Q 6.78125 9.90625 6.78125 20.515625 
Q 6.78125 27.484375 10.78125 32.3125 
Q 14.796875 37.15625 21.921875 38.8125 
z
M 18.3125 54.390625 
Q 18.3125 48.734375 21.84375 45.5625 
Q 25.390625 42.390625 31.78125 42.390625 
Q 38.140625 42.390625 41.71875 45.5625 
Q 45.3125 48.734375 45.3125 54.390625 
Q 45.3125 60.0625 41.71875 63.234375 
Q 38.140625 66.40625 31.78125 66.40625 
Q 25.390625 66.40625 21.84375 63.234375 
Q 18.3125 60.0625 18.3125 54.390625 
z
" id="DejaVuSans-38"/>
      </defs>
      <g transform="translate(117.9125 377.401386)scale(0.1 -0.1)">
       <use xlink:href="#DejaVuSans-38"/>
       <use x="63.623047" xlink:href="#DejaVuSans-30"/>
       <use x="127.246094" xlink:href="#DejaVuSans-30"/>
      </g>
     </g>
    </g>
    <g id="ytick_5">
     <g id="line2d_13">
      <g>
       <use style="stroke:#000000;stroke-width:0.8;" x="144" xlink:href="#m3989a7e4a9" y="292.334961"/>
      </g>
     </g>
     <g id="text_14">
      <!-- 1000 -->
      <g transform="translate(111.55 296.13418)scale(0.1 -0.1)">
       <use xlink:href="#DejaVuSans-31"/>
       <use x="63.623047" xlink:href="#DejaVuSans-30"/>
       <use x="127.246094" xlink:href="#DejaVuSans-30"/>
       <use x="190.869141" xlink:href="#DejaVuSans-30"/>
      </g>
     </g>
    </g>
    <g id="ytick_6">
     <g id="line2d_14">
      <g>
       <use style="stroke:#000000;stroke-width:0.8;" x="144" xlink:href="#m3989a7e4a9" y="211.067755"/>
      </g>
     </g>
     <g id="text_15">
      <!-- 1200 -->
      <g transform="translate(111.55 214.866973)scale(0.1 -0.1)">
       <use xlink:href="#DejaVuSans-31"/>
       <use x="63.623047" xlink:href="#DejaVuSans-32"/>
       <use x="127.246094" xlink:href="#DejaVuSans-30"/>
       <use x="190.869141" xlink:href="#DejaVuSans-30"/>
      </g>
     </g>
    </g>
    <g id="ytick_7">
     <g id="line2d_15">
      <g>
       <use style="stroke:#000000;stroke-width:0.8;" x="144" xlink:href="#m3989a7e4a9" y="129.800548"/>
      </g>
     </g>
     <g id="text_16">
      <!-- 1400 -->
      <g transform="translate(111.55 133.599767)scale(0.1 -0.1)">
       <use xlink:href="#DejaVuSans-31"/>
       <use x="63.623047" xlink:href="#DejaVuSans-34"/>
       <use x="127.246094" xlink:href="#DejaVuSans-30"/>
       <use x="190.869141" xlink:href="#DejaVuSans-30"/>
      </g>
     </g>
    </g>
    <g id="text_17">
     <!-- cumulative reward -->
     <defs>
      <path d="M 8.5 21.578125 
L 8.5 54.6875 
L 17.484375 54.6875 
L 17.484375 21.921875 
Q 17.484375 14.15625 20.5 10.265625 
Q 23.53125 6.390625 29.59375 6.390625 
Q 36.859375 6.390625 41.078125 11.03125 
Q 45.3125 15.671875 45.3125 23.6875 
L 45.3125 54.6875 
L 54.296875 54.6875 
L 54.296875 0 
L 45.3125 0 
L 45.3125 8.40625 
Q 42.046875 3.421875 37.71875 1 
Q 33.40625 -1.421875 27.6875 -1.421875 
Q 18.265625 -1.421875 13.375 4.4375 
Q 8.5 10.296875 8.5 21.578125 
z
M 31.109375 56 
z
" id="DejaVuSans-75"/>
      <path d="M 2.984375 54.6875 
L 12.5 54.6875 
L 29.59375 8.796875 
L 46.6875 54.6875 
L 56.203125 54.6875 
L 35.6875 0 
L 23.484375 0 
z
" id="DejaVuSans-76"/>
      <path d="M 41.109375 46.296875 
Q 39.59375 47.171875 37.8125 47.578125 
Q 36.03125 48 33.890625 48 
Q 26.265625 48 22.1875 43.046875 
Q 18.109375 38.09375 18.109375 28.8125 
L 18.109375 0 
L 9.078125 0 
L 9.078125 54.6875 
L 18.109375 54.6875 
L 18.109375 46.1875 
Q 20.953125 51.171875 25.484375 53.578125 
Q 30.03125 56 36.53125 56 
Q 37.453125 56 38.578125 55.875 
Q 39.703125 55.765625 41.0625 55.515625 
z
" id="DejaVuSans-72"/>
     </defs>
     <g transform="translate(105.470312 405.096875)rotate(-90)scale(0.1 -0.1)">
      <use xlink:href="#DejaVuSans-63"/>
      <use x="54.980469" xlink:href="#DejaVuSans-75"/>
      <use x="118.359375" xlink:href="#DejaVuSans-6d"/>
      <use x="215.771484" xlink:href="#DejaVuSans-75"/>
      <use x="279.150391" xlink:href="#DejaVuSans-6c"/>
      <use x="306.933594" xlink:href="#DejaVuSans-61"/>
      <use x="368.212891" xlink:href="#DejaVuSans-74"/>
      <use x="407.421875" xlink:href="#DejaVuSans-69"/>
      <use x="435.205078" xlink:href="#DejaVuSans-76"/>
      <use x="494.384766" xlink:href="#DejaVuSans-65"/>
      <use x="555.908203" xlink:href="#DejaVuSans-20"/>
      <use x="587.695312" xlink:href="#DejaVuSans-72"/>
      <use x="628.777344" xlink:href="#DejaVuSans-65"/>
      <use x="690.300781" xlink:href="#DejaVuSans-77"/>
      <use x="772.087891" xlink:href="#DejaVuSans-61"/>
      <use x="833.367188" xlink:href="#DejaVuSans-72"/>
      <use x="874.464844" xlink:href="#DejaVuSans-64"/>
     </g>
    </g>
   </g>
   <g id="line2d_16">
    <path clip-path="url(#p4f3982e68b)" d="M 184.581818 548.351041 
L 186.581428 532.154487 
L 188.632309 535.795258 
L 190.888279 520.56172 
L 193.092977 527.497876 
L 195.502762 513.036376 
L 197.758732 513.649944 
L 200.014702 511.431349 
L 202.629576 509.944159 
L 204.936817 513.312685 
L 207.295331 502.288788 
L 209.602573 501.878389 
L 211.961087 513.889682 
L 214.422144 497.9735 
L 217.139562 497.806902 
L 219.908252 487.335622 
L 222.830759 475.494991 
L 225.701993 466.356493 
L 228.983403 452.906771 
L 232.008453 451.927501 
L 235.341136 449.408217 
L 238.622546 432.825644 
L 242.006501 430.598922 
L 245.390455 427.116623 
L 248.928226 437.835767 
L 256.465216 415.66201 
L 260.208074 414.121996 
L 263.797117 423.918758 
L 267.38616 414.471445 
L 270.770114 429.379914 
L 274.256613 421.679847 
L 277.794384 409.185014 
L 281.588514 408.404848 
L 285.126285 413.410908 
L 288.817872 411.956225 
L 292.30437 403.325648 
L 296.149773 388.52689 
L 299.892632 402.480469 
L 303.635491 394.918555 
L 311.326296 397.13715 
L 315.017883 394.032743 
L 318.401838 403.512563 
L 321.837064 401.614973 
L 325.528651 391.858845 
L 329.117694 395.57682 
L 332.758008 388.299342 
L 337.06486 380.192938 
L 340.961534 390.318832 
L 344.653121 397.901062 
L 352.241383 393.691421 
L 356.138058 396.771448 
L 360.137277 381.10313 
L 363.931408 383.370485 
L 367.725538 384.646381 
L 371.622213 384.292868 
L 375.518888 391.200581 
L 379.210475 381.160017 
L 383.312238 377.344522 
L 387.311457 367.905336 
L 391.054316 396.356985 
L 394.899719 379.802855 
L 398.898938 376.462773 
L 402.846885 382.305885 
L 406.743559 370.794385 
L 410.999139 367.295832 
L 415.30599 366.418146 
L 419.407753 376.694384 
L 423.253156 380.692731 
L 427.047287 374.666768 
L 430.738873 389.55492 
L 434.68682 372.671658 
L 438.737311 368.46608 
L 442.531442 381.241285 
L 446.325573 370.887843 
L 454.580371 377.954026 
L 458.477046 372.236878 
L 462.219905 376.369316 
L 466.270396 372.366906 
L 470.269615 379.790665 
L 474.16629 370.034537 
L 478.011692 361.773725 
L 482.062183 369.575377 
L 486.266491 367.962223 
L 490.214437 382.277442 
L 494.111112 374.069454 
L 498.31542 369.221865 
L 502.160822 378.384742 
L 506.36513 364.386466 
L 510.518165 366.401893 
L 514.568656 382.110844 
L 518.567875 370.144248 
L 523.079814 362.488877 
L 527.437937 364.207678 
L 531.232068 386.710568 
L 535.641463 360.058987 
L 539.948314 362.643285 
L 544.050078 374.024757 
L 548.049297 375.036533 
L 551.894699 381.472896 
L 560.252042 379.04707 
L 564.148716 366.926066 
L 568.096663 366.141838 
L 572.095882 364.333642 
L 576.30019 366.99108 
L 580.196864 367.478683 
L 584.196083 377.917456 
L 588.297846 376.665941 
L 592.758514 360.985433 
L 596.603917 374.309192 
L 600.808224 365.715185 
L 604.858715 354.41498 
L 612.857153 370.469316 
L 617.112732 360.595351 
L 621.265767 369.774482 
L 625.36753 359.855819 
L 629.520565 354.878203 
L 633.827416 371.789909 
L 637.826635 370.749688 
L 642.184759 353.476344 
L 646.286522 366.840736 
L 650.285741 383.959673 
L 654.643864 369.770418 
L 658.694355 360.879786 
L 667.102969 359.827376 
L 671.256004 374.544867 
L 675.306495 369.112154 
L 679.20317 368.99838 
L 683.202389 367.373036 
L 687.150336 367.043904 
L 691.405915 360.408436 
L 695.610222 366.779785 
L 699.968345 364.707472 
L 704.018837 375.089357 
L 707.761695 380.794315 
L 711.760914 376.564357 
L 715.760133 364.723725 
L 719.861896 357.681922 
L 724.066203 356.324759 
L 728.01415 377.07634 
L 731.910825 379.079577 
L 735.961316 373.212085 
L 740.114351 366.255612 
L 744.523747 380.400169 
L 748.574238 364.634331 
L 753.239993 357.653478 
L 757.290484 367.421796 
L 761.546063 360.749759 
L 765.75037 362.748932 
L 774.722977 359.039084 
L 778.876012 373.122691 
L 783.131591 368.913049 
L 787.13081 371.322622 
L 791.232573 368.965873 
L 795.231792 367.019524 
L 799.436099 373.179578 
L 803.589135 366.812292 
L 807.74217 369.282815 
L 811.946477 354.837569 
L 816.407144 354.3906 
L 820.355091 360.148381 
L 824.559398 362.984607 
L 828.763705 359.144731 
L 833.121829 355.873726 
L 836.967231 370.099551 
L 841.427899 348.234609 
L 845.632206 360.477513 
L 850.041601 352.818079 
L 854.604812 354.012707 
L 858.860392 357.633161 
L 862.808339 361.615254 
L 867.063918 357.137431 
L 871.319497 344.532888 
L 875.882708 333.939707 
L 884.496411 356.958643 
L 888.700718 351.058644 
L 892.546121 373.663118 
L 896.750428 352.732749 
L 900.800919 347.328479 
L 905.261586 354.102101 
L 909.260805 348.551551 
L 913.824017 348.41746 
L 917.977052 357.153685 
L 922.386447 359.717665 
L 926.590754 347.738879 
L 930.795061 351.48936 
L 935.204456 340.82304 
L 939.460036 356.332886 
L 943.818159 343.817736 
L 947.971194 355.49177 
L 952.278045 354.134608 
L 956.277264 358.283299 
L 960.994292 342.765326 
L 965.608775 332.789776 
L 969.915626 362.614841 
L 974.273749 360.859469 
L 979.042049 355.174828 
L 983.09254 367.710295 
L 987.604479 346.723039 
L 996.218182 357.730682 
L 996.218182 357.730682 
" style="fill:none;stroke:#1f77b4;stroke-linecap:square;stroke-width:1.5;"/>
   </g>
   <g id="line2d_17">
    <path clip-path="url(#p4f3982e68b)" d="M 184.581818 602.344973 
L 186.581428 591.959024 
L 188.632309 605.290909 
L 190.888279 598.334436 
L 193.092977 586.449107 
L 195.502762 579.768943 
L 197.758732 583.576312 
L 200.014702 588.074451 
L 202.629576 579.005031 
L 204.936817 578.167979 
L 207.295331 571.158682 
L 209.602573 579.817703 
L 211.961087 574.535335 
L 214.422144 574.612539 
L 217.139562 574.230583 
L 219.908252 566.843394 
L 222.830759 553.279897 
L 225.701993 563.462678 
L 228.983403 573.85269 
L 232.008453 580.252483 
L 235.341136 560.874317 
L 238.622546 567.119702 
L 242.006501 551.171013 
L 245.390455 547.489609 
L 248.928226 545.559512 
L 256.465216 564.937678 
L 260.208074 526.461719 
L 263.797117 545.685477 
L 267.38616 533.040299 
L 270.770114 574.917291 
L 274.256613 546.323424 
L 277.794384 527.022463 
L 281.588514 561.459441 
L 285.126285 554.856481 
L 288.817872 544.974389 
L 292.30437 548.099113 
L 296.149773 495.251048 
L 299.892632 507.871846 
L 303.635491 526.819295 
L 307.480894 531.898495 
L 311.326296 550.130793 
L 315.017883 499.188445 
L 318.401838 504.239201 
L 321.837064 539.212544 
L 325.528651 536.034996 
L 329.117694 539.720464 
L 332.758008 515.56785 
L 337.06486 518.842918 
L 340.961534 529.533619 
L 344.653121 507.48989 
L 352.241383 495.657384 
L 356.138058 517.06723 
L 360.137277 527.225631 
L 367.725538 492.557041 
L 371.622213 499.619161 
L 375.518888 536.542916 
L 379.210475 543.75538 
L 383.312238 531.744087 
L 387.311457 494.893473 
L 391.054316 530.374735 
L 394.899719 505.941749 
L 398.898938 505.689821 
L 402.846885 546.526592 
L 406.743559 508.786102 
L 410.999139 523.873358 
L 415.30599 538.704624 
L 419.407753 533.219087 
L 423.253156 510.435826 
L 427.047287 479.85904 
L 430.738873 505.714201 
L 434.68682 498.119781 
L 438.737311 496.648844 
L 442.531442 526.664887 
L 446.325573 509.724738 
L 454.580371 528.164267 
L 458.477046 500.813789 
L 462.219905 472.979771 
L 466.270396 489.639548 
L 470.269615 494.158004 
L 474.16629 471.809523 
L 478.011692 482.553047 
L 482.062183 509.216818 
L 486.266491 491.110484 
L 490.214437 501.370469 
L 494.111112 498.753665 
L 498.31542 524.937959 
L 506.36513 514.01971 
L 510.518165 501.626461 
L 514.568656 519.732794 
L 518.567875 485.194232 
L 523.079814 486.41324 
L 527.437937 477.754219 
L 531.232068 564.023422 
L 535.641463 500.204285 
L 539.948314 499.769505 
L 544.050078 468.814826 
L 548.049297 503.324945 
L 551.894699 505.003113 
L 560.252042 508.964889 
L 564.148716 485.852496 
L 568.096663 490.858556 
L 572.095882 521.435342 
L 576.30019 542.004072 
L 580.196864 473.487691 
L 584.196083 521.435342 
L 588.297846 510.261101 
L 592.758514 526.258551 
L 596.603917 503.503733 
L 600.808224 529.562063 
L 604.858715 457.234249 
L 608.909206 494.946296 
L 612.857153 487.250292 
L 617.112732 464.141962 
L 621.265767 507.896226 
L 625.36753 513.178594 
L 629.520565 446.87268 
L 633.827416 504.214821 
L 637.826635 510.870605 
L 642.184759 461.167582 
L 646.286522 496.470056 
L 650.285741 507.668678 
L 654.643864 507.136377 
L 658.694355 506.880386 
L 667.102969 474.678255 
L 671.256004 517.09161 
L 675.306495 490.781352 
L 679.20317 492.353872 
L 683.202389 490.220608 
L 687.150336 499.566337 
L 691.405915 476.100431 
L 695.610222 487.681008 
L 699.968345 486.210072 
L 704.018837 502.260345 
L 707.761695 491.46806 
L 711.760914 481.208075 
L 715.760133 510.769021 
L 719.861896 480.037827 
L 724.066203 469.294303 
L 728.01415 509.216818 
L 731.910825 507.542713 
L 735.961316 530.069983 
L 740.114351 516.685274 
L 744.523747 541.114196 
L 748.574238 506.270882 
L 753.239993 491.49244 
L 757.290484 491.0089 
L 761.546063 539.64326 
L 765.75037 492.455456 
L 774.722977 513.05263 
L 778.876012 478.794439 
L 783.131591 490.070264 
L 787.13081 522.881899 
L 791.232573 533.523839 
L 795.231792 472.878186 
L 799.436099 531.516539 
L 803.589135 503.097397 
L 807.74217 497.359932 
L 811.946477 478.160555 
L 816.407144 536.165023 
L 820.355091 511.784862 
L 824.559398 506.425289 
L 828.763705 471.557594 
L 833.121829 481.004907 
L 836.967231 518.257794 
L 841.427899 490.931696 
L 845.632206 488.087344 
L 850.041601 459.493478 
L 854.604812 468.762002 
L 858.860392 484.686312 
L 862.808339 502.487893 
L 867.063918 482.804976 
L 871.319497 470.44017 
L 884.496411 498.501737 
L 888.700718 485.852496 
L 892.546121 495.860552 
L 896.750428 524.430039 
L 900.800919 530.679487 
L 905.261586 530.931415 
L 913.824017 443.695133 
L 917.977052 498.855249 
L 922.386447 478.794439 
L 926.590754 462.971714 
L 930.795061 515.263098 
L 935.204456 483.849259 
L 939.460036 495.502977 
L 943.818159 501.268885 
L 947.971194 462.081838 
L 952.278045 489.586724 
L 956.277264 482.630251 
L 960.994292 470.411727 
L 965.608775 482.553047 
L 969.915626 480.748915 
L 974.273749 507.185138 
L 979.042049 501.065717 
L 983.09254 482.857799 
L 987.604479 506.144917 
L 996.218182 536.315368 
L 996.218182 536.315368 
" style="fill:none;stroke:#ff7f0e;stroke-linecap:square;stroke-width:1.5;"/>
   </g>
   <g id="line2d_18">
    <path clip-path="url(#p4f3982e68b)" d="M 184.581818 424.089419 
L 186.581428 443.646372 
L 188.632309 448.343617 
L 190.888279 416.165867 
L 193.092977 436.458288 
L 195.502762 405.499546 
L 197.758732 431.277504 
L 200.014702 431.557875 
L 202.629576 379.189288 
L 204.936817 431.253123 
L 207.295331 413.553126 
L 209.602573 398.669037 
L 211.961087 431.761043 
L 214.422144 398.112357 
L 217.139562 351.127721 
L 219.908252 348.815669 
L 222.830759 338.149349 
L 225.701993 349.352033 
L 228.983403 273.696327 
L 232.008453 340.132268 
L 235.341136 294.342261 
L 238.622546 311.180826 
L 242.006501 311.180826 
L 245.390455 307.954518 
L 248.928226 256.50425 
L 256.465216 229.734832 
L 260.208074 235.171608 
L 263.797117 247.690821 
L 267.38616 256.809002 
L 270.770114 273.033999 
L 274.256613 264.834138 
L 277.794384 270.595983 
L 281.588514 223.944544 
L 285.126285 271.307071 
L 288.817872 204.696406 
L 292.30437 305.569326 
L 296.149773 207.715482 
L 299.892632 264.529386 
L 303.635491 260.56761 
L 307.480894 286.065196 
L 311.326296 249.011413 
L 315.017883 244.440133 
L 318.401838 295.585649 
L 321.837064 299.344258 
L 325.528651 258.686274 
L 329.117694 265.874359 
L 332.758008 257.288478 
L 337.06486 135.64366 
L 340.961534 208.987314 
L 344.653121 255.309622 
L 352.241383 213.152259 
L 356.138058 172.746204 
L 360.137277 210.181942 
L 363.931408 265.313615 
L 367.725538 259.09261 
L 371.622213 215.565895 
L 375.518888 218.686555 
L 379.210475 244.667681 
L 383.312238 154.257914 
L 387.311457 215.309903 
L 391.054316 243.932213 
L 394.899719 230.42154 
L 398.898938 155.399718 
L 402.846885 177.622236 
L 406.743559 244.111001 
L 410.999139 210.230702 
L 415.30599 170.994895 
L 419.407753 191.388901 
L 423.253156 250.279182 
L 427.047287 249.291785 
L 430.738873 240.120781 
L 434.68682 221.734075 
L 438.737311 224.070508 
L 442.531442 253.761481 
L 446.325573 246.955353 
L 454.580371 184.32678 
L 458.477046 241.798949 
L 462.219905 228.133868 
L 466.270396 219.044131 
L 470.269615 248.019953 
L 474.16629 253.936206 
L 478.011692 249.698121 
L 482.062183 235.50074 
L 486.266491 150.348961 
L 490.214437 231.079804 
L 494.111112 245.886689 
L 498.31542 187.500265 
L 502.160822 257.06093 
L 506.36513 184.428364 
L 510.518165 247.105697 
L 514.568656 206.472094 
L 518.567875 226.91486 
L 523.079814 209.190482 
L 527.437937 178.512112 
L 531.232068 259.11699 
L 535.641463 174.65192 
L 539.948314 183.160596 
L 548.049297 220.718235 
L 551.894699 222.879943 
L 560.252042 161.116866 
L 564.148716 243.269885 
L 568.096663 236.695368 
L 572.095882 209.572438 
L 576.30019 196.366517 
L 580.196864 257.239718 
L 584.196083 253.733038 
L 588.297846 223.131871 
L 592.758514 152.303438 
L 596.603917 283.472772 
L 600.808224 226.764516 
L 604.858715 205.253086 
L 608.909206 240.401153 
L 612.857153 240.502737 
L 617.112732 199.921957 
L 621.265767 181.380844 
L 625.36753 219.881183 
L 629.520565 214.269683 
L 633.827416 172.973752 
L 637.826635 242.510037 
L 642.184759 196.033321 
L 646.286522 145.952406 
L 650.285741 203.245786 
L 654.643864 141.356745 
L 658.694355 213.838966 
L 667.102969 111.109091 
L 671.256004 156.18801 
L 675.306495 198.398197 
L 679.20317 230.141168 
L 683.202389 209.698402 
L 687.150336 239.409693 
L 691.405915 210.255083 
L 695.610222 191.360457 
L 699.968345 225.443923 
L 704.018837 226.000604 
L 707.761695 255.386826 
L 711.760914 212.745922 
L 715.760133 209.36927 
L 719.861896 196.569685 
L 724.066203 208.42657 
L 728.01415 245.228425 
L 731.910825 213.989311 
L 735.961316 214.854806 
L 740.114351 231.108248 
L 744.523747 149.129953 
L 748.574238 257.06093 
L 753.239993 142.778921 
L 757.290484 234.00136 
L 761.546063 211.197782 
L 765.75037 226.435383 
L 774.722977 192.453501 
L 778.876012 201.214106 
L 783.131591 195.602605 
L 787.13081 229.38132 
L 791.232573 216.988071 
L 795.231792 234.610864 
L 799.436099 236.362173 
L 803.589135 211.043375 
L 807.74217 219.527671 
L 811.946477 214.042134 
L 816.407144 157.992142 
L 820.355091 250.332005 
L 824.559398 165.712527 
L 828.763705 180.113076 
L 833.121829 179.121616 
L 836.967231 241.900533 
L 841.427899 180.974508 
L 845.632206 172.189523 
L 850.041601 173.15254 
L 854.604812 147.959706 
L 858.860392 190.803777 
L 862.808339 257.897982 
L 867.063918 220.490687 
L 871.319497 196.187729 
L 875.882708 155.428162 
L 884.496411 228.36548 
L 888.700718 214.216859 
L 892.546121 244.464513 
L 896.750428 196.439658 
L 900.800919 245.480353 
L 905.261586 160.938078 
L 909.260805 210.255083 
L 913.824017 170.738904 
L 917.977052 197.788693 
L 922.386447 205.659422 
L 926.590754 230.344336 
L 930.795061 207.666722 
L 935.204456 187.756257 
L 939.460036 191.718033 
L 943.818159 187.577469 
L 947.971194 161.393175 
L 952.278045 212.94909 
L 956.277264 248.349086 
L 960.994292 114.083471 
L 965.608775 207.236006 
L 969.915626 209.011694 
L 974.273749 226.638551 
L 979.042049 164.034359 
L 983.09254 248.479113 
L 987.604479 176.785184 
L 996.218182 192.758253 
L 996.218182 192.758253 
" style="fill:none;stroke:#2ca02c;stroke-linecap:square;stroke-width:1.5;"/>
   </g>
   <g id="line2d_19">
    <path clip-path="url(#p4f3982e68b)" d="M 252.722357 381.820948 
L 348.39598 387.141411 
L 450.52988 354.420646 
L 556.047734 366.586919 
L 662.59103 355.067451 
L 770.416126 341.516303 
L 880.394648 336.841851 
L 991.962603 344.549538 
" style="fill:none;stroke:#d62728;stroke-linecap:square;stroke-width:1.5;"/>
   </g>
   <g id="patch_3">
    <path d="M 144 630 
L 144 86.4 
" style="fill:none;stroke:#000000;stroke-linecap:square;stroke-linejoin:miter;stroke-width:0.8;"/>
   </g>
   <g id="patch_4">
    <path d="M 1036.8 630 
L 1036.8 86.4 
" style="fill:none;stroke:#000000;stroke-linecap:square;stroke-linejoin:miter;stroke-width:0.8;"/>
   </g>
   <g id="patch_5">
    <path d="M 144 630 
L 1036.8 630 
" style="fill:none;stroke:#000000;stroke-linecap:square;stroke-linejoin:miter;stroke-width:0.8;"/>
   </g>
   <g id="patch_6">
    <path d="M 144 86.4 
L 1036.8 86.4 
" style="fill:none;stroke:#000000;stroke-linecap:square;stroke-linejoin:miter;stroke-width:0.8;"/>
   </g>
   <g id="text_18">
    <!-- doomrnn.cma.16.64 -->
    <defs>
     <path d="M 54.890625 33.015625 
L 54.890625 0 
L 45.90625 0 
L 45.90625 32.71875 
Q 45.90625 40.484375 42.875 44.328125 
Q 39.84375 48.1875 33.796875 48.1875 
Q 26.515625 48.1875 22.3125 43.546875 
Q 18.109375 38.921875 18.109375 30.90625 
L 18.109375 0 
L 9.078125 0 
L 9.078125 54.6875 
L 18.109375 54.6875 
L 18.109375 46.1875 
Q 21.34375 51.125 25.703125 53.5625 
Q 30.078125 56 35.796875 56 
Q 45.21875 56 50.046875 50.171875 
Q 54.890625 44.34375 54.890625 33.015625 
z
" id="DejaVuSans-6e"/>
    </defs>
    <g transform="translate(529.5225 80.4)scale(0.12 -0.12)">
     <use xlink:href="#DejaVuSans-64"/>
     <use x="63.476562" xlink:href="#DejaVuSans-6f"/>
     <use x="124.658203" xlink:href="#DejaVuSans-6f"/>
     <use x="185.839844" xlink:href="#DejaVuSans-6d"/>
     <use x="283.251953" xlink:href="#DejaVuSans-72"/>
     <use x="324.349609" xlink:href="#DejaVuSans-6e"/>
     <use x="387.728516" xlink:href="#DejaVuSans-6e"/>
     <use x="451.107422" xlink:href="#DejaVuSans-2e"/>
     <use x="482.894531" xlink:href="#DejaVuSans-63"/>
     <use x="537.875" xlink:href="#DejaVuSans-6d"/>
     <use x="635.287109" xlink:href="#DejaVuSans-61"/>
     <use x="696.566406" xlink:href="#DejaVuSans-2e"/>
     <use x="728.353516" xlink:href="#DejaVuSans-31"/>
     <use x="791.976562" xlink:href="#DejaVuSans-36"/>
     <use x="855.599609" xlink:href="#DejaVuSans-2e"/>
     <use x="887.386719" xlink:href="#DejaVuSans-36"/>
     <use x="951.009766" xlink:href="#DejaVuSans-34"/>
    </g>
   </g>
   <g id="legend_1">
    <g id="patch_7">
     <path d="M 151 153.1125 
L 256.470312 153.1125 
Q 258.470312 153.1125 258.470312 151.1125 
L 258.470312 93.4 
Q 258.470312 91.4 256.470312 91.4 
L 151 91.4 
Q 149 91.4 149 93.4 
L 149 151.1125 
Q 149 153.1125 151 153.1125 
z
" style="fill:#ffffff;opacity:0.8;stroke:#cccccc;stroke-linejoin:miter;"/>
    </g>
    <g id="line2d_20">
     <path d="M 153 99.498437 
L 173 99.498437 
" style="fill:none;stroke:#1f77b4;stroke-linecap:square;stroke-width:1.5;"/>
    </g>
    <g id="line2d_21"/>
    <g id="text_19">
     <!-- mean -->
     <g transform="translate(181 102.998437)scale(0.1 -0.1)">
      <use xlink:href="#DejaVuSans-6d"/>
      <use x="97.412109" xlink:href="#DejaVuSans-65"/>
      <use x="158.935547" xlink:href="#DejaVuSans-61"/>
      <use x="220.214844" xlink:href="#DejaVuSans-6e"/>
     </g>
    </g>
    <g id="line2d_22">
     <path d="M 153 114.176562 
L 173 114.176562 
" style="fill:none;stroke:#ff7f0e;stroke-linecap:square;stroke-width:1.5;"/>
    </g>
    <g id="line2d_23"/>
    <g id="text_20">
     <!-- min -->
     <g transform="translate(181 117.676562)scale(0.1 -0.1)">
      <use xlink:href="#DejaVuSans-6d"/>
      <use x="97.412109" xlink:href="#DejaVuSans-69"/>
      <use x="125.195312" xlink:href="#DejaVuSans-6e"/>
     </g>
    </g>
    <g id="line2d_24">
     <path d="M 153 128.854687 
L 173 128.854687 
" style="fill:none;stroke:#2ca02c;stroke-linecap:square;stroke-width:1.5;"/>
    </g>
    <g id="line2d_25"/>
    <g id="text_21">
     <!-- max -->
     <defs>
      <path d="M 54.890625 54.6875 
L 35.109375 28.078125 
L 55.90625 0 
L 45.3125 0 
L 29.390625 21.484375 
L 13.484375 0 
L 2.875 0 
L 24.125 28.609375 
L 4.6875 54.6875 
L 15.28125 54.6875 
L 29.78125 35.203125 
L 44.28125 54.6875 
z
" id="DejaVuSans-78"/>
     </defs>
     <g transform="translate(181 132.354687)scale(0.1 -0.1)">
      <use xlink:href="#DejaVuSans-6d"/>
      <use x="97.412109" xlink:href="#DejaVuSans-61"/>
      <use x="158.691406" xlink:href="#DejaVuSans-78"/>
     </g>
    </g>
    <g id="line2d_26">
     <path d="M 153 143.532812 
L 173 143.532812 
" style="fill:none;stroke:#d62728;stroke-linecap:square;stroke-width:1.5;"/>
    </g>
    <g id="line2d_27"/>
    <g id="text_22">
     <!-- best avg score -->
     <defs>
      <path d="M 48.6875 27.296875 
Q 48.6875 37.203125 44.609375 42.84375 
Q 40.53125 48.484375 33.40625 48.484375 
Q 26.265625 48.484375 22.1875 42.84375 
Q 18.109375 37.203125 18.109375 27.296875 
Q 18.109375 17.390625 22.1875 11.75 
Q 26.265625 6.109375 33.40625 6.109375 
Q 40.53125 6.109375 44.609375 11.75 
Q 48.6875 17.390625 48.6875 27.296875 
z
M 18.109375 46.390625 
Q 20.953125 51.265625 25.265625 53.625 
Q 29.59375 56 35.59375 56 
Q 45.5625 56 51.78125 48.09375 
Q 58.015625 40.1875 58.015625 27.296875 
Q 58.015625 14.40625 51.78125 6.484375 
Q 45.5625 -1.421875 35.59375 -1.421875 
Q 29.59375 -1.421875 25.265625 0.953125 
Q 20.953125 3.328125 18.109375 8.203125 
L 18.109375 0 
L 9.078125 0 
L 9.078125 75.984375 
L 18.109375 75.984375 
z
" id="DejaVuSans-62"/>
      <path d="M 45.40625 27.984375 
Q 45.40625 37.75 41.375 43.109375 
Q 37.359375 48.484375 30.078125 48.484375 
Q 22.859375 48.484375 18.828125 43.109375 
Q 14.796875 37.75 14.796875 27.984375 
Q 14.796875 18.265625 18.828125 12.890625 
Q 22.859375 7.515625 30.078125 7.515625 
Q 37.359375 7.515625 41.375 12.890625 
Q 45.40625 18.265625 45.40625 27.984375 
z
M 54.390625 6.78125 
Q 54.390625 -7.171875 48.1875 -13.984375 
Q 42 -20.796875 29.203125 -20.796875 
Q 24.46875 -20.796875 20.265625 -20.09375 
Q 16.0625 -19.390625 12.109375 -17.921875 
L 12.109375 -9.1875 
Q 16.0625 -11.328125 19.921875 -12.34375 
Q 23.78125 -13.375 27.78125 -13.375 
Q 36.625 -13.375 41.015625 -8.765625 
Q 45.40625 -4.15625 45.40625 5.171875 
L 45.40625 9.625 
Q 42.625 4.78125 38.28125 2.390625 
Q 33.9375 0 27.875 0 
Q 17.828125 0 11.671875 7.65625 
Q 5.515625 15.328125 5.515625 27.984375 
Q 5.515625 40.671875 11.671875 48.328125 
Q 17.828125 56 27.875 56 
Q 33.9375 56 38.28125 53.609375 
Q 42.625 51.21875 45.40625 46.390625 
L 45.40625 54.6875 
L 54.390625 54.6875 
z
" id="DejaVuSans-67"/>
     </defs>
     <g transform="translate(181 147.032812)scale(0.1 -0.1)">
      <use xlink:href="#DejaVuSans-62"/>
      <use x="63.476562" xlink:href="#DejaVuSans-65"/>
      <use x="125" xlink:href="#DejaVuSans-73"/>
      <use x="177.099609" xlink:href="#DejaVuSans-74"/>
      <use x="216.308594" xlink:href="#DejaVuSans-20"/>
      <use x="248.095703" xlink:href="#DejaVuSans-61"/>
      <use x="309.375" xlink:href="#DejaVuSans-76"/>
      <use x="368.554688" xlink:href="#DejaVuSans-67"/>
      <use x="432.03125" xlink:href="#DejaVuSans-20"/>
      <use x="463.818359" xlink:href="#DejaVuSans-73"/>
      <use x="515.917969" xlink:href="#DejaVuSans-63"/>
      <use x="570.898438" xlink:href="#DejaVuSans-6f"/>
      <use x="632.080078" xlink:href="#DejaVuSans-72"/>
      <use x="673.162109" xlink:href="#DejaVuSans-65"/>
     </g>
    </g>
   </g>
  </g>
 </g>
 <defs>
  <clipPath id="p4f3982e68b">
   <rect height="543.6" width="892.8" x="144" y="86.4"/>
  </clipPath>
 </defs>
</svg>
