<?xml version="1.0" encoding="utf-8" standalone="no"?>
<!DOCTYPE svg PUBLIC "-//W3C//DTD SVG 1.1//EN"
  "http://www.w3.org/Graphics/SVG/1.1/DTD/svg11.dtd">
<!-- Created with matplotlib (http://matplotlib.org/) -->
<svg height="360pt" version="1.1" viewBox="0 0 576 360" width="576pt" xmlns="http://www.w3.org/2000/svg" xmlns:xlink="http://www.w3.org/1999/xlink">
 <defs>
  <style type="text/css">
*{stroke-linecap:butt;stroke-linejoin:round;}
  </style>
 </defs>
 <g id="figure_1">
  <g id="patch_1">
   <path d="M 0 360 
L 576 360 
L 576 0 
L 0 0 
z
" style="fill:#ffffff;"/>
  </g>
  <g id="axes_1">
   <g id="patch_2">
    <path d="M 72 315 
L 518.4 315 
L 518.4 43.2 
L 72 43.2 
z
" style="fill:#ffffff;"/>
   </g>
   <g id="matplotlib.axis_1">
    <g id="xtick_1">
     <g id="line2d_1">
      <defs>
       <path d="M 0 0 
L 0 3.5 
" id="m914f2bd4d9" style="stroke:#000000;stroke-width:0.8;"/>
      </defs>
      <g>
       <use style="stroke:#000000;stroke-width:0.8;" x="90.261818" xlink:href="#m914f2bd4d9" y="315"/>
      </g>
     </g>
     <g id="text_1">
      <!-- 0 -->
      <defs>
       <path d="M 31.78125 66.40625 
Q 24.171875 66.40625 20.328125 58.90625 
Q 16.5 51.421875 16.5 36.375 
Q 16.5 21.390625 20.328125 13.890625 
Q 24.171875 6.390625 31.78125 6.390625 
Q 39.453125 6.390625 43.28125 13.890625 
Q 47.125 21.390625 47.125 36.375 
Q 47.125 51.421875 43.28125 58.90625 
Q 39.453125 66.40625 31.78125 66.40625 
z
M 31.78125 74.21875 
Q 44.046875 74.21875 50.515625 64.515625 
Q 56.984375 54.828125 56.984375 36.375 
Q 56.984375 17.96875 50.515625 8.265625 
Q 44.046875 -1.421875 31.78125 -1.421875 
Q 19.53125 -1.421875 13.0625 8.265625 
Q 6.59375 17.96875 6.59375 36.375 
Q 6.59375 54.828125 13.0625 64.515625 
Q 19.53125 74.21875 31.78125 74.21875 
z
" id="DejaVuSans-30"/>
      </defs>
      <g transform="translate(87.080568 329.598437)scale(0.1 -0.1)">
       <use xlink:href="#DejaVuSans-30"/>
      </g>
     </g>
    </g>
    <g id="xtick_2">
     <g id="line2d_2">
      <g>
       <use style="stroke:#000000;stroke-width:0.8;" x="140.989091" xlink:href="#m914f2bd4d9" y="315"/>
      </g>
     </g>
     <g id="text_2">
      <!-- 25 -->
      <defs>
       <path d="M 19.1875 8.296875 
L 53.609375 8.296875 
L 53.609375 0 
L 7.328125 0 
L 7.328125 8.296875 
Q 12.9375 14.109375 22.625 23.890625 
Q 32.328125 33.6875 34.8125 36.53125 
Q 39.546875 41.84375 41.421875 45.53125 
Q 43.3125 49.21875 43.3125 52.78125 
Q 43.3125 58.59375 39.234375 62.25 
Q 35.15625 65.921875 28.609375 65.921875 
Q 23.96875 65.921875 18.8125 64.3125 
Q 13.671875 62.703125 7.8125 59.421875 
L 7.8125 69.390625 
Q 13.765625 71.78125 18.9375 73 
Q 24.125 74.21875 28.421875 74.21875 
Q 39.75 74.21875 46.484375 68.546875 
Q 53.21875 62.890625 53.21875 53.421875 
Q 53.21875 48.921875 51.53125 44.890625 
Q 49.859375 40.875 45.40625 35.40625 
Q 44.1875 33.984375 37.640625 27.21875 
Q 31.109375 20.453125 19.1875 8.296875 
z
" id="DejaVuSans-32"/>
       <path d="M 10.796875 72.90625 
L 49.515625 72.90625 
L 49.515625 64.59375 
L 19.828125 64.59375 
L 19.828125 46.734375 
Q 21.96875 47.46875 24.109375 47.828125 
Q 26.265625 48.1875 28.421875 48.1875 
Q 40.625 48.1875 47.75 41.5 
Q 54.890625 34.8125 54.890625 23.390625 
Q 54.890625 11.625 47.5625 5.09375 
Q 40.234375 -1.421875 26.90625 -1.421875 
Q 22.3125 -1.421875 17.546875 -0.640625 
Q 12.796875 0.140625 7.71875 1.703125 
L 7.71875 11.625 
Q 12.109375 9.234375 16.796875 8.0625 
Q 21.484375 6.890625 26.703125 6.890625 
Q 35.15625 6.890625 40.078125 11.328125 
Q 45.015625 15.765625 45.015625 23.390625 
Q 45.015625 31 40.078125 35.4375 
Q 35.15625 39.890625 26.703125 39.890625 
Q 22.75 39.890625 18.8125 39.015625 
Q 14.890625 38.140625 10.796875 36.28125 
z
" id="DejaVuSans-35"/>
      </defs>
      <g transform="translate(134.626591 329.598437)scale(0.1 -0.1)">
       <use xlink:href="#DejaVuSans-32"/>
       <use x="63.623047" xlink:href="#DejaVuSans-35"/>
      </g>
     </g>
    </g>
    <g id="xtick_3">
     <g id="line2d_3">
      <g>
       <use style="stroke:#000000;stroke-width:0.8;" x="191.716364" xlink:href="#m914f2bd4d9" y="315"/>
      </g>
     </g>
     <g id="text_3">
      <!-- 50 -->
      <g transform="translate(185.353864 329.598437)scale(0.1 -0.1)">
       <use xlink:href="#DejaVuSans-35"/>
       <use x="63.623047" xlink:href="#DejaVuSans-30"/>
      </g>
     </g>
    </g>
    <g id="xtick_4">
     <g id="line2d_4">
      <g>
       <use style="stroke:#000000;stroke-width:0.8;" x="242.443636" xlink:href="#m914f2bd4d9" y="315"/>
      </g>
     </g>
     <g id="text_4">
      <!-- 75 -->
      <defs>
       <path d="M 8.203125 72.90625 
L 55.078125 72.90625 
L 55.078125 68.703125 
L 28.609375 0 
L 18.3125 0 
L 43.21875 64.59375 
L 8.203125 64.59375 
z
" id="DejaVuSans-37"/>
      </defs>
      <g transform="translate(236.081136 329.598437)scale(0.1 -0.1)">
       <use xlink:href="#DejaVuSans-37"/>
       <use x="63.623047" xlink:href="#DejaVuSans-35"/>
      </g>
     </g>
    </g>
    <g id="xtick_5">
     <g id="line2d_5">
      <g>
       <use style="stroke:#000000;stroke-width:0.8;" x="293.170909" xlink:href="#m914f2bd4d9" y="315"/>
      </g>
     </g>
     <g id="text_5">
      <!-- 100 -->
      <defs>
       <path d="M 12.40625 8.296875 
L 28.515625 8.296875 
L 28.515625 63.921875 
L 10.984375 60.40625 
L 10.984375 69.390625 
L 28.421875 72.90625 
L 38.28125 72.90625 
L 38.28125 8.296875 
L 54.390625 8.296875 
L 54.390625 0 
L 12.40625 0 
z
" id="DejaVuSans-31"/>
      </defs>
      <g transform="translate(283.627159 329.598437)scale(0.1 -0.1)">
       <use xlink:href="#DejaVuSans-31"/>
       <use x="63.623047" xlink:href="#DejaVuSans-30"/>
       <use x="127.246094" xlink:href="#DejaVuSans-30"/>
      </g>
     </g>
    </g>
    <g id="xtick_6">
     <g id="line2d_6">
      <g>
       <use style="stroke:#000000;stroke-width:0.8;" x="343.898182" xlink:href="#m914f2bd4d9" y="315"/>
      </g>
     </g>
     <g id="text_6">
      <!-- 125 -->
      <g transform="translate(334.354432 329.598437)scale(0.1 -0.1)">
       <use xlink:href="#DejaVuSans-31"/>
       <use x="63.623047" xlink:href="#DejaVuSans-32"/>
       <use x="127.246094" xlink:href="#DejaVuSans-35"/>
      </g>
     </g>
    </g>
    <g id="xtick_7">
     <g id="line2d_7">
      <g>
       <use style="stroke:#000000;stroke-width:0.8;" x="394.625455" xlink:href="#m914f2bd4d9" y="315"/>
      </g>
     </g>
     <g id="text_7">
      <!-- 150 -->
      <g transform="translate(385.081705 329.598437)scale(0.1 -0.1)">
       <use xlink:href="#DejaVuSans-31"/>
       <use x="63.623047" xlink:href="#DejaVuSans-35"/>
       <use x="127.246094" xlink:href="#DejaVuSans-30"/>
      </g>
     </g>
    </g>
    <g id="xtick_8">
     <g id="line2d_8">
      <g>
       <use style="stroke:#000000;stroke-width:0.8;" x="445.352727" xlink:href="#m914f2bd4d9" y="315"/>
      </g>
     </g>
     <g id="text_8">
      <!-- 175 -->
      <g transform="translate(435.808977 329.598437)scale(0.1 -0.1)">
       <use xlink:href="#DejaVuSans-31"/>
       <use x="63.623047" xlink:href="#DejaVuSans-37"/>
       <use x="127.246094" xlink:href="#DejaVuSans-35"/>
      </g>
     </g>
    </g>
    <g id="xtick_9">
     <g id="line2d_9">
      <g>
       <use style="stroke:#000000;stroke-width:0.8;" x="496.08" xlink:href="#m914f2bd4d9" y="315"/>
      </g>
     </g>
     <g id="text_9">
      <!-- 200 -->
      <g transform="translate(486.53625 329.598437)scale(0.1 -0.1)">
       <use xlink:href="#DejaVuSans-32"/>
       <use x="63.623047" xlink:href="#DejaVuSans-30"/>
       <use x="127.246094" xlink:href="#DejaVuSans-30"/>
      </g>
     </g>
    </g>
    <g id="text_10">
     <!-- generation -->
     <defs>
      <path d="M 45.40625 27.984375 
Q 45.40625 37.75 41.375 43.109375 
Q 37.359375 48.484375 30.078125 48.484375 
Q 22.859375 48.484375 18.828125 43.109375 
Q 14.796875 37.75 14.796875 27.984375 
Q 14.796875 18.265625 18.828125 12.890625 
Q 22.859375 7.515625 30.078125 7.515625 
Q 37.359375 7.515625 41.375 12.890625 
Q 45.40625 18.265625 45.40625 27.984375 
z
M 54.390625 6.78125 
Q 54.390625 -7.171875 48.1875 -13.984375 
Q 42 -20.796875 29.203125 -20.796875 
Q 24.46875 -20.796875 20.265625 -20.09375 
Q 16.0625 -19.390625 12.109375 -17.921875 
L 12.109375 -9.1875 
Q 16.0625 -11.328125 19.921875 -12.34375 
Q 23.78125 -13.375 27.78125 -13.375 
Q 36.625 -13.375 41.015625 -8.765625 
Q 45.40625 -4.15625 45.40625 5.171875 
L 45.40625 9.625 
Q 42.625 4.78125 38.28125 2.390625 
Q 33.9375 0 27.875 0 
Q 17.828125 0 11.671875 7.65625 
Q 5.515625 15.328125 5.515625 27.984375 
Q 5.515625 40.671875 11.671875 48.328125 
Q 17.828125 56 27.875 56 
Q 33.9375 56 38.28125 53.609375 
Q 42.625 51.21875 45.40625 46.390625 
L 45.40625 54.6875 
L 54.390625 54.6875 
z
" id="DejaVuSans-67"/>
      <path d="M 56.203125 29.59375 
L 56.203125 25.203125 
L 14.890625 25.203125 
Q 15.484375 15.921875 20.484375 11.0625 
Q 25.484375 6.203125 34.421875 6.203125 
Q 39.59375 6.203125 44.453125 7.46875 
Q 49.3125 8.734375 54.109375 11.28125 
L 54.109375 2.78125 
Q 49.265625 0.734375 44.1875 -0.34375 
Q 39.109375 -1.421875 33.890625 -1.421875 
Q 20.796875 -1.421875 13.15625 6.1875 
Q 5.515625 13.8125 5.515625 26.8125 
Q 5.515625 40.234375 12.765625 48.109375 
Q 20.015625 56 32.328125 56 
Q 43.359375 56 49.78125 48.890625 
Q 56.203125 41.796875 56.203125 29.59375 
z
M 47.21875 32.234375 
Q 47.125 39.59375 43.09375 43.984375 
Q 39.0625 48.390625 32.421875 48.390625 
Q 24.90625 48.390625 20.390625 44.140625 
Q 15.875 39.890625 15.1875 32.171875 
z
" id="DejaVuSans-65"/>
      <path d="M 54.890625 33.015625 
L 54.890625 0 
L 45.90625 0 
L 45.90625 32.71875 
Q 45.90625 40.484375 42.875 44.328125 
Q 39.84375 48.1875 33.796875 48.1875 
Q 26.515625 48.1875 22.3125 43.546875 
Q 18.109375 38.921875 18.109375 30.90625 
L 18.109375 0 
L 9.078125 0 
L 9.078125 54.6875 
L 18.109375 54.6875 
L 18.109375 46.1875 
Q 21.34375 51.125 25.703125 53.5625 
Q 30.078125 56 35.796875 56 
Q 45.21875 56 50.046875 50.171875 
Q 54.890625 44.34375 54.890625 33.015625 
z
" id="DejaVuSans-6e"/>
      <path d="M 41.109375 46.296875 
Q 39.59375 47.171875 37.8125 47.578125 
Q 36.03125 48 33.890625 48 
Q 26.265625 48 22.1875 43.046875 
Q 18.109375 38.09375 18.109375 28.8125 
L 18.109375 0 
L 9.078125 0 
L 9.078125 54.6875 
L 18.109375 54.6875 
L 18.109375 46.1875 
Q 20.953125 51.171875 25.484375 53.578125 
Q 30.03125 56 36.53125 56 
Q 37.453125 56 38.578125 55.875 
Q 39.703125 55.765625 41.0625 55.515625 
z
" id="DejaVuSans-72"/>
      <path d="M 34.28125 27.484375 
Q 23.390625 27.484375 19.1875 25 
Q 14.984375 22.515625 14.984375 16.5 
Q 14.984375 11.71875 18.140625 8.90625 
Q 21.296875 6.109375 26.703125 6.109375 
Q 34.1875 6.109375 38.703125 11.40625 
Q 43.21875 16.703125 43.21875 25.484375 
L 43.21875 27.484375 
z
M 52.203125 31.203125 
L 52.203125 0 
L 43.21875 0 
L 43.21875 8.296875 
Q 40.140625 3.328125 35.546875 0.953125 
Q 30.953125 -1.421875 24.3125 -1.421875 
Q 15.921875 -1.421875 10.953125 3.296875 
Q 6 8.015625 6 15.921875 
Q 6 25.140625 12.171875 29.828125 
Q 18.359375 34.515625 30.609375 34.515625 
L 43.21875 34.515625 
L 43.21875 35.40625 
Q 43.21875 41.609375 39.140625 45 
Q 35.0625 48.390625 27.6875 48.390625 
Q 23 48.390625 18.546875 47.265625 
Q 14.109375 46.140625 10.015625 43.890625 
L 10.015625 52.203125 
Q 14.9375 54.109375 19.578125 55.046875 
Q 24.21875 56 28.609375 56 
Q 40.484375 56 46.34375 49.84375 
Q 52.203125 43.703125 52.203125 31.203125 
z
" id="DejaVuSans-61"/>
      <path d="M 18.3125 70.21875 
L 18.3125 54.6875 
L 36.8125 54.6875 
L 36.8125 47.703125 
L 18.3125 47.703125 
L 18.3125 18.015625 
Q 18.3125 11.328125 20.140625 9.421875 
Q 21.96875 7.515625 27.59375 7.515625 
L 36.8125 7.515625 
L 36.8125 0 
L 27.59375 0 
Q 17.1875 0 13.234375 3.875 
Q 9.28125 7.765625 9.28125 18.015625 
L 9.28125 47.703125 
L 2.6875 47.703125 
L 2.6875 54.6875 
L 9.28125 54.6875 
L 9.28125 70.21875 
z
" id="DejaVuSans-74"/>
      <path d="M 9.421875 54.6875 
L 18.40625 54.6875 
L 18.40625 0 
L 9.421875 0 
z
M 9.421875 75.984375 
L 18.40625 75.984375 
L 18.40625 64.59375 
L 9.421875 64.59375 
z
" id="DejaVuSans-69"/>
      <path d="M 30.609375 48.390625 
Q 23.390625 48.390625 19.1875 42.75 
Q 14.984375 37.109375 14.984375 27.296875 
Q 14.984375 17.484375 19.15625 11.84375 
Q 23.34375 6.203125 30.609375 6.203125 
Q 37.796875 6.203125 41.984375 11.859375 
Q 46.1875 17.53125 46.1875 27.296875 
Q 46.1875 37.015625 41.984375 42.703125 
Q 37.796875 48.390625 30.609375 48.390625 
z
M 30.609375 56 
Q 42.328125 56 49.015625 48.375 
Q 55.71875 40.765625 55.71875 27.296875 
Q 55.71875 13.875 49.015625 6.21875 
Q 42.328125 -1.421875 30.609375 -1.421875 
Q 18.84375 -1.421875 12.171875 6.21875 
Q 5.515625 13.875 5.515625 27.296875 
Q 5.515625 40.765625 12.171875 48.375 
Q 18.84375 56 30.609375 56 
z
" id="DejaVuSans-6f"/>
     </defs>
     <g transform="translate(268.007031 343.276563)scale(0.1 -0.1)">
      <use xlink:href="#DejaVuSans-67"/>
      <use x="63.476562" xlink:href="#DejaVuSans-65"/>
      <use x="125" xlink:href="#DejaVuSans-6e"/>
      <use x="188.378906" xlink:href="#DejaVuSans-65"/>
      <use x="249.902344" xlink:href="#DejaVuSans-72"/>
      <use x="291.015625" xlink:href="#DejaVuSans-61"/>
      <use x="352.294922" xlink:href="#DejaVuSans-74"/>
      <use x="391.503906" xlink:href="#DejaVuSans-69"/>
      <use x="419.287109" xlink:href="#DejaVuSans-6f"/>
      <use x="480.46875" xlink:href="#DejaVuSans-6e"/>
     </g>
    </g>
   </g>
   <g id="matplotlib.axis_2">
    <g id="ytick_1">
     <g id="line2d_10">
      <defs>
       <path d="M 0 0 
L -3.5 0 
" id="m6ef6e18efa" style="stroke:#000000;stroke-width:0.8;"/>
      </defs>
      <g>
       <use style="stroke:#000000;stroke-width:0.8;" x="72" xlink:href="#m6ef6e18efa" y="308.701893"/>
      </g>
     </g>
     <g id="text_11">
      <!-- 200 -->
      <g transform="translate(45.9125 312.501112)scale(0.1 -0.1)">
       <use xlink:href="#DejaVuSans-32"/>
       <use x="63.623047" xlink:href="#DejaVuSans-30"/>
       <use x="127.246094" xlink:href="#DejaVuSans-30"/>
      </g>
     </g>
    </g>
    <g id="ytick_2">
     <g id="line2d_11">
      <g>
       <use style="stroke:#000000;stroke-width:0.8;" x="72" xlink:href="#m6ef6e18efa" y="268.06829"/>
      </g>
     </g>
     <g id="text_12">
      <!-- 400 -->
      <defs>
       <path d="M 37.796875 64.3125 
L 12.890625 25.390625 
L 37.796875 25.390625 
z
M 35.203125 72.90625 
L 47.609375 72.90625 
L 47.609375 25.390625 
L 58.015625 25.390625 
L 58.015625 17.1875 
L 47.609375 17.1875 
L 47.609375 0 
L 37.796875 0 
L 37.796875 17.1875 
L 4.890625 17.1875 
L 4.890625 26.703125 
z
" id="DejaVuSans-34"/>
      </defs>
      <g transform="translate(45.9125 271.867509)scale(0.1 -0.1)">
       <use xlink:href="#DejaVuSans-34"/>
       <use x="63.623047" xlink:href="#DejaVuSans-30"/>
       <use x="127.246094" xlink:href="#DejaVuSans-30"/>
      </g>
     </g>
    </g>
    <g id="ytick_3">
     <g id="line2d_12">
      <g>
       <use style="stroke:#000000;stroke-width:0.8;" x="72" xlink:href="#m6ef6e18efa" y="227.434687"/>
      </g>
     </g>
     <g id="text_13">
      <!-- 600 -->
      <defs>
       <path d="M 33.015625 40.375 
Q 26.375 40.375 22.484375 35.828125 
Q 18.609375 31.296875 18.609375 23.390625 
Q 18.609375 15.53125 22.484375 10.953125 
Q 26.375 6.390625 33.015625 6.390625 
Q 39.65625 6.390625 43.53125 10.953125 
Q 47.40625 15.53125 47.40625 23.390625 
Q 47.40625 31.296875 43.53125 35.828125 
Q 39.65625 40.375 33.015625 40.375 
z
M 52.59375 71.296875 
L 52.59375 62.3125 
Q 48.875 64.0625 45.09375 64.984375 
Q 41.3125 65.921875 37.59375 65.921875 
Q 27.828125 65.921875 22.671875 59.328125 
Q 17.53125 52.734375 16.796875 39.40625 
Q 19.671875 43.65625 24.015625 45.921875 
Q 28.375 48.1875 33.59375 48.1875 
Q 44.578125 48.1875 50.953125 41.515625 
Q 57.328125 34.859375 57.328125 23.390625 
Q 57.328125 12.15625 50.6875 5.359375 
Q 44.046875 -1.421875 33.015625 -1.421875 
Q 20.359375 -1.421875 13.671875 8.265625 
Q 6.984375 17.96875 6.984375 36.375 
Q 6.984375 53.65625 15.1875 63.9375 
Q 23.390625 74.21875 37.203125 74.21875 
Q 40.921875 74.21875 44.703125 73.484375 
Q 48.484375 72.75 52.59375 71.296875 
z
" id="DejaVuSans-36"/>
      </defs>
      <g transform="translate(45.9125 231.233906)scale(0.1 -0.1)">
       <use xlink:href="#DejaVuSans-36"/>
       <use x="63.623047" xlink:href="#DejaVuSans-30"/>
       <use x="127.246094" xlink:href="#DejaVuSans-30"/>
      </g>
     </g>
    </g>
    <g id="ytick_4">
     <g id="line2d_13">
      <g>
       <use style="stroke:#000000;stroke-width:0.8;" x="72" xlink:href="#m6ef6e18efa" y="186.801084"/>
      </g>
     </g>
     <g id="text_14">
      <!-- 800 -->
      <defs>
       <path d="M 31.78125 34.625 
Q 24.75 34.625 20.71875 30.859375 
Q 16.703125 27.09375 16.703125 20.515625 
Q 16.703125 13.921875 20.71875 10.15625 
Q 24.75 6.390625 31.78125 6.390625 
Q 38.8125 6.390625 42.859375 10.171875 
Q 46.921875 13.96875 46.921875 20.515625 
Q 46.921875 27.09375 42.890625 30.859375 
Q 38.875 34.625 31.78125 34.625 
z
M 21.921875 38.8125 
Q 15.578125 40.375 12.03125 44.71875 
Q 8.5 49.078125 8.5 55.328125 
Q 8.5 64.0625 14.71875 69.140625 
Q 20.953125 74.21875 31.78125 74.21875 
Q 42.671875 74.21875 48.875 69.140625 
Q 55.078125 64.0625 55.078125 55.328125 
Q 55.078125 49.078125 51.53125 44.71875 
Q 48 40.375 41.703125 38.8125 
Q 48.828125 37.15625 52.796875 32.3125 
Q 56.78125 27.484375 56.78125 20.515625 
Q 56.78125 9.90625 50.3125 4.234375 
Q 43.84375 -1.421875 31.78125 -1.421875 
Q 19.734375 -1.421875 13.25 4.234375 
Q 6.78125 9.90625 6.78125 20.515625 
Q 6.78125 27.484375 10.78125 32.3125 
Q 14.796875 37.15625 21.921875 38.8125 
z
M 18.3125 54.390625 
Q 18.3125 48.734375 21.84375 45.5625 
Q 25.390625 42.390625 31.78125 42.390625 
Q 38.140625 42.390625 41.71875 45.5625 
Q 45.3125 48.734375 45.3125 54.390625 
Q 45.3125 60.0625 41.71875 63.234375 
Q 38.140625 66.40625 31.78125 66.40625 
Q 25.390625 66.40625 21.84375 63.234375 
Q 18.3125 60.0625 18.3125 54.390625 
z
" id="DejaVuSans-38"/>
      </defs>
      <g transform="translate(45.9125 190.600302)scale(0.1 -0.1)">
       <use xlink:href="#DejaVuSans-38"/>
       <use x="63.623047" xlink:href="#DejaVuSans-30"/>
       <use x="127.246094" xlink:href="#DejaVuSans-30"/>
      </g>
     </g>
    </g>
    <g id="ytick_5">
     <g id="line2d_14">
      <g>
       <use style="stroke:#000000;stroke-width:0.8;" x="72" xlink:href="#m6ef6e18efa" y="146.16748"/>
      </g>
     </g>
     <g id="text_15">
      <!-- 1000 -->
      <g transform="translate(39.55 149.966699)scale(0.1 -0.1)">
       <use xlink:href="#DejaVuSans-31"/>
       <use x="63.623047" xlink:href="#DejaVuSans-30"/>
       <use x="127.246094" xlink:href="#DejaVuSans-30"/>
       <use x="190.869141" xlink:href="#DejaVuSans-30"/>
      </g>
     </g>
    </g>
    <g id="ytick_6">
     <g id="line2d_15">
      <g>
       <use style="stroke:#000000;stroke-width:0.8;" x="72" xlink:href="#m6ef6e18efa" y="105.533877"/>
      </g>
     </g>
     <g id="text_16">
      <!-- 1200 -->
      <g transform="translate(39.55 109.333096)scale(0.1 -0.1)">
       <use xlink:href="#DejaVuSans-31"/>
       <use x="63.623047" xlink:href="#DejaVuSans-32"/>
       <use x="127.246094" xlink:href="#DejaVuSans-30"/>
       <use x="190.869141" xlink:href="#DejaVuSans-30"/>
      </g>
     </g>
    </g>
    <g id="ytick_7">
     <g id="line2d_16">
      <g>
       <use style="stroke:#000000;stroke-width:0.8;" x="72" xlink:href="#m6ef6e18efa" y="64.900274"/>
      </g>
     </g>
     <g id="text_17">
      <!-- 1400 -->
      <g transform="translate(39.55 68.699493)scale(0.1 -0.1)">
       <use xlink:href="#DejaVuSans-31"/>
       <use x="63.623047" xlink:href="#DejaVuSans-34"/>
       <use x="127.246094" xlink:href="#DejaVuSans-30"/>
       <use x="190.869141" xlink:href="#DejaVuSans-30"/>
      </g>
     </g>
    </g>
    <g id="text_18">
     <!-- cumulative reward -->
     <defs>
      <path d="M 48.78125 52.59375 
L 48.78125 44.1875 
Q 44.96875 46.296875 41.140625 47.34375 
Q 37.3125 48.390625 33.40625 48.390625 
Q 24.65625 48.390625 19.8125 42.84375 
Q 14.984375 37.3125 14.984375 27.296875 
Q 14.984375 17.28125 19.8125 11.734375 
Q 24.65625 6.203125 33.40625 6.203125 
Q 37.3125 6.203125 41.140625 7.25 
Q 44.96875 8.296875 48.78125 10.40625 
L 48.78125 2.09375 
Q 45.015625 0.34375 40.984375 -0.53125 
Q 36.96875 -1.421875 32.421875 -1.421875 
Q 20.0625 -1.421875 12.78125 6.34375 
Q 5.515625 14.109375 5.515625 27.296875 
Q 5.515625 40.671875 12.859375 48.328125 
Q 20.21875 56 33.015625 56 
Q 37.15625 56 41.109375 55.140625 
Q 45.0625 54.296875 48.78125 52.59375 
z
" id="DejaVuSans-63"/>
      <path d="M 8.5 21.578125 
L 8.5 54.6875 
L 17.484375 54.6875 
L 17.484375 21.921875 
Q 17.484375 14.15625 20.5 10.265625 
Q 23.53125 6.390625 29.59375 6.390625 
Q 36.859375 6.390625 41.078125 11.03125 
Q 45.3125 15.671875 45.3125 23.6875 
L 45.3125 54.6875 
L 54.296875 54.6875 
L 54.296875 0 
L 45.3125 0 
L 45.3125 8.40625 
Q 42.046875 3.421875 37.71875 1 
Q 33.40625 -1.421875 27.6875 -1.421875 
Q 18.265625 -1.421875 13.375 4.4375 
Q 8.5 10.296875 8.5 21.578125 
z
M 31.109375 56 
z
" id="DejaVuSans-75"/>
      <path d="M 52 44.1875 
Q 55.375 50.25 60.0625 53.125 
Q 64.75 56 71.09375 56 
Q 79.640625 56 84.28125 50.015625 
Q 88.921875 44.046875 88.921875 33.015625 
L 88.921875 0 
L 79.890625 0 
L 79.890625 32.71875 
Q 79.890625 40.578125 77.09375 44.375 
Q 74.3125 48.1875 68.609375 48.1875 
Q 61.625 48.1875 57.5625 43.546875 
Q 53.515625 38.921875 53.515625 30.90625 
L 53.515625 0 
L 44.484375 0 
L 44.484375 32.71875 
Q 44.484375 40.625 41.703125 44.40625 
Q 38.921875 48.1875 33.109375 48.1875 
Q 26.21875 48.1875 22.15625 43.53125 
Q 18.109375 38.875 18.109375 30.90625 
L 18.109375 0 
L 9.078125 0 
L 9.078125 54.6875 
L 18.109375 54.6875 
L 18.109375 46.1875 
Q 21.1875 51.21875 25.484375 53.609375 
Q 29.78125 56 35.6875 56 
Q 41.65625 56 45.828125 52.96875 
Q 50 49.953125 52 44.1875 
z
" id="DejaVuSans-6d"/>
      <path d="M 9.421875 75.984375 
L 18.40625 75.984375 
L 18.40625 0 
L 9.421875 0 
z
" id="DejaVuSans-6c"/>
      <path d="M 2.984375 54.6875 
L 12.5 54.6875 
L 29.59375 8.796875 
L 46.6875 54.6875 
L 56.203125 54.6875 
L 35.6875 0 
L 23.484375 0 
z
" id="DejaVuSans-76"/>
      <path id="DejaVuSans-20"/>
      <path d="M 4.203125 54.6875 
L 13.1875 54.6875 
L 24.421875 12.015625 
L 35.59375 54.6875 
L 46.1875 54.6875 
L 57.421875 12.015625 
L 68.609375 54.6875 
L 77.59375 54.6875 
L 63.28125 0 
L 52.6875 0 
L 40.921875 44.828125 
L 29.109375 0 
L 18.5 0 
z
" id="DejaVuSans-77"/>
      <path d="M 45.40625 46.390625 
L 45.40625 75.984375 
L 54.390625 75.984375 
L 54.390625 0 
L 45.40625 0 
L 45.40625 8.203125 
Q 42.578125 3.328125 38.25 0.953125 
Q 33.9375 -1.421875 27.875 -1.421875 
Q 17.96875 -1.421875 11.734375 6.484375 
Q 5.515625 14.40625 5.515625 27.296875 
Q 5.515625 40.1875 11.734375 48.09375 
Q 17.96875 56 27.875 56 
Q 33.9375 56 38.25 53.625 
Q 42.578125 51.265625 45.40625 46.390625 
z
M 14.796875 27.296875 
Q 14.796875 17.390625 18.875 11.75 
Q 22.953125 6.109375 30.078125 6.109375 
Q 37.203125 6.109375 41.296875 11.75 
Q 45.40625 17.390625 45.40625 27.296875 
Q 45.40625 37.203125 41.296875 42.84375 
Q 37.203125 48.484375 30.078125 48.484375 
Q 22.953125 48.484375 18.875 42.84375 
Q 14.796875 37.203125 14.796875 27.296875 
z
" id="DejaVuSans-64"/>
     </defs>
     <g transform="translate(33.470312 225.996875)rotate(-90)scale(0.1 -0.1)">
      <use xlink:href="#DejaVuSans-63"/>
      <use x="54.980469" xlink:href="#DejaVuSans-75"/>
      <use x="118.359375" xlink:href="#DejaVuSans-6d"/>
      <use x="215.771484" xlink:href="#DejaVuSans-75"/>
      <use x="279.150391" xlink:href="#DejaVuSans-6c"/>
      <use x="306.933594" xlink:href="#DejaVuSans-61"/>
      <use x="368.212891" xlink:href="#DejaVuSans-74"/>
      <use x="407.421875" xlink:href="#DejaVuSans-69"/>
      <use x="435.205078" xlink:href="#DejaVuSans-76"/>
      <use x="494.384766" xlink:href="#DejaVuSans-65"/>
      <use x="555.908203" xlink:href="#DejaVuSans-20"/>
      <use x="587.695312" xlink:href="#DejaVuSans-72"/>
      <use x="628.777344" xlink:href="#DejaVuSans-65"/>
      <use x="690.300781" xlink:href="#DejaVuSans-77"/>
      <use x="772.087891" xlink:href="#DejaVuSans-61"/>
      <use x="833.367188" xlink:href="#DejaVuSans-72"/>
      <use x="874.464844" xlink:href="#DejaVuSans-64"/>
     </g>
    </g>
   </g>
   <g id="line2d_17">
    <path clip-path="url(#pdfa91ef1bb)" d="M 92.290909 274.17552 
L 94.32 266.077243 
L 96.349091 267.897629 
L 98.378182 260.28086 
L 100.407273 263.748938 
L 102.436364 256.518188 
L 104.465455 256.824972 
L 106.494545 255.715675 
L 108.523636 254.97208 
L 110.552727 256.656342 
L 112.581818 251.144394 
L 114.610909 250.939195 
L 116.64 256.944841 
L 118.669091 248.98675 
L 120.698182 248.903451 
L 122.727273 243.667811 
L 124.756364 237.747495 
L 126.785455 233.178247 
L 128.814545 226.453385 
L 130.843636 225.96375 
L 132.872727 224.704109 
L 134.901818 216.412822 
L 136.930909 215.299461 
L 138.96 213.558311 
L 140.989091 218.917884 
L 143.018182 207.831005 
L 145.047273 207.060998 
L 147.076364 211.959379 
L 149.105455 207.235723 
L 151.134545 214.689957 
L 153.163636 210.839923 
L 155.192727 204.592507 
L 157.221818 204.202424 
L 159.250909 206.705454 
L 161.28 205.978113 
L 163.309091 201.662824 
L 165.338182 194.263445 
L 167.367273 201.240235 
L 169.396364 197.459278 
L 173.454545 198.568575 
L 175.483636 197.016371 
L 177.512727 201.756281 
L 179.541818 200.807487 
L 181.570909 195.929423 
L 183.6 197.78841 
L 185.629091 194.149671 
L 187.658182 190.096469 
L 189.687273 195.159416 
L 191.716364 198.950531 
L 193.745455 196.84571 
L 195.774545 198.385724 
L 197.803636 190.551565 
L 199.832727 191.685243 
L 201.861818 192.32319 
L 203.890909 192.146434 
L 205.92 195.60029 
L 207.949091 190.580009 
L 209.978182 188.672261 
L 212.007273 183.952668 
L 214.036364 198.178493 
L 216.065455 189.901428 
L 218.094545 188.231386 
L 220.123636 191.152943 
L 222.152727 185.397193 
L 224.181818 183.647916 
L 226.210909 183.209073 
L 228.24 188.347192 
L 230.269091 190.346366 
L 232.298182 187.333384 
L 234.327273 194.77746 
L 236.356364 186.335829 
L 238.385455 184.23304 
L 240.414545 190.620642 
L 242.443636 185.443921 
L 244.472727 188.977013 
L 246.501818 186.118439 
L 248.530909 188.184658 
L 250.56 186.183453 
L 252.589091 189.895333 
L 254.618182 185.017268 
L 256.647273 180.886863 
L 258.676364 184.787689 
L 260.705455 183.981112 
L 262.734545 191.138721 
L 264.763636 187.034727 
L 266.792727 184.610932 
L 268.821818 189.192371 
L 270.850909 182.193233 
L 272.88 183.200946 
L 274.909091 191.055422 
L 276.938182 185.072124 
L 278.967273 181.244438 
L 280.996364 182.103839 
L 283.025455 193.355284 
L 285.054545 180.029494 
L 287.083636 181.321642 
L 289.112727 187.012378 
L 291.141818 187.518267 
L 293.170909 190.736448 
L 295.2 189.523535 
L 297.229091 183.463033 
L 299.258182 183.070919 
L 301.287273 182.166821 
L 303.316364 183.49554 
L 305.345455 183.739342 
L 307.374545 188.958728 
L 309.403636 188.33297 
L 311.432727 180.492717 
L 313.461818 187.154596 
L 315.490909 182.857592 
L 317.52 177.20749 
L 321.578182 185.234658 
L 323.607273 180.297675 
L 325.636364 184.887241 
L 327.665455 179.92791 
L 329.694545 177.439101 
L 331.723636 185.894954 
L 333.752727 185.374844 
L 335.781818 176.738172 
L 337.810909 183.420368 
L 339.84 191.979836 
L 341.869091 184.885209 
L 343.898182 180.439893 
L 345.927273 179.913688 
L 347.956364 187.272433 
L 349.985455 184.556077 
L 352.014545 184.49919 
L 354.043636 183.686518 
L 356.072727 183.521952 
L 358.101818 180.204218 
L 360.130909 183.389893 
L 362.16 182.353736 
L 364.189091 187.544679 
L 366.218182 190.397158 
L 368.247273 188.282178 
L 370.276364 182.361862 
L 372.305455 178.840961 
L 374.334545 178.16238 
L 376.363636 188.53817 
L 378.392727 189.539788 
L 380.421818 186.606042 
L 382.450909 183.127806 
L 384.48 190.200085 
L 386.509091 182.317166 
L 388.538182 178.826739 
L 390.567273 183.710898 
L 392.596364 180.374879 
L 394.625455 181.374466 
L 396.654545 179.519542 
L 398.683636 186.561345 
L 400.712727 184.456525 
L 402.741818 185.661311 
L 404.770909 184.482937 
L 406.8 183.509762 
L 408.829091 186.589789 
L 410.858182 183.406146 
L 412.887273 184.641408 
L 414.916364 177.418785 
L 416.945455 177.1953 
L 418.974545 180.074191 
L 421.003636 181.492303 
L 423.032727 179.572366 
L 425.061818 177.936863 
L 427.090909 185.049775 
L 429.12 174.117304 
L 431.149091 180.238757 
L 433.178182 176.40904 
L 435.207273 177.006354 
L 437.236364 178.816581 
L 439.265455 180.807627 
L 441.294545 178.568716 
L 443.323636 172.266444 
L 445.352727 166.969854 
L 447.381818 178.479322 
L 449.410909 175.529322 
L 451.44 186.831559 
L 453.469091 176.366374 
L 455.498182 173.66424 
L 457.527273 177.051051 
L 459.556364 174.275775 
L 461.585455 174.20873 
L 463.614545 178.576842 
L 465.643636 179.858833 
L 467.672727 173.869439 
L 469.701818 175.74468 
L 471.730909 170.41152 
L 473.76 178.166443 
L 475.789091 171.908868 
L 477.818182 177.745885 
L 479.847273 177.067304 
L 481.876364 179.141649 
L 483.905455 171.382663 
L 485.934545 166.394888 
L 487.963636 181.30742 
L 489.992727 180.429735 
L 492.021818 177.587414 
L 494.050909 183.855147 
L 496.08 173.361519 
L 498.109091 178.865341 
L 498.109091 178.865341 
" style="fill:none;stroke:#1f77b4;stroke-linecap:square;stroke-width:1.5;"/>
   </g>
   <g id="line2d_18">
    <path clip-path="url(#pdfa91ef1bb)" d="M 92.290909 301.172486 
L 94.32 295.979512 
L 96.349091 302.645455 
L 98.378182 299.167218 
L 100.407273 293.224554 
L 102.436364 289.884471 
L 104.465455 291.788156 
L 106.494545 294.037226 
L 108.523636 289.502516 
L 110.552727 289.083989 
L 112.581818 285.579341 
L 114.610909 289.908852 
L 116.64 287.267667 
L 118.669091 287.306269 
L 120.698182 287.115291 
L 122.727273 283.421697 
L 124.756364 276.639949 
L 128.814545 286.926345 
L 130.843636 290.126241 
L 132.872727 280.437159 
L 134.901818 283.559851 
L 136.930909 275.585507 
L 138.96 273.744804 
L 140.989091 272.779756 
L 143.018182 282.468839 
L 145.047273 263.230859 
L 147.076364 272.842738 
L 149.105455 266.52015 
L 151.134545 287.458645 
L 153.163636 273.161712 
L 155.192727 263.511231 
L 157.221818 280.729721 
L 159.250909 277.42824 
L 161.28 272.487194 
L 163.309091 274.049556 
L 165.338182 247.625524 
L 167.367273 253.935923 
L 169.396364 263.409647 
L 171.425455 265.949248 
L 173.454545 275.065396 
L 175.483636 249.594222 
L 177.512727 252.119601 
L 179.541818 269.606272 
L 181.570909 268.017498 
L 183.6 269.860232 
L 185.629091 257.783925 
L 187.658182 259.421459 
L 189.687273 264.76681 
L 191.716364 253.744945 
L 193.745455 247.828692 
L 195.774545 258.533615 
L 197.803636 263.612815 
L 201.861818 246.27852 
L 203.890909 249.80958 
L 205.92 268.271458 
L 207.949091 271.87769 
L 209.978182 265.872044 
L 212.007273 247.446736 
L 214.036364 265.187367 
L 216.065455 252.970875 
L 218.094545 252.844911 
L 220.123636 273.263296 
L 222.152727 254.393051 
L 226.210909 269.352312 
L 228.24 266.609544 
L 230.269091 255.217913 
L 232.298182 239.92952 
L 234.327273 252.857101 
L 236.356364 249.05989 
L 238.385455 248.324422 
L 240.414545 263.332443 
L 242.443636 254.862369 
L 244.472727 264.082133 
L 248.530909 236.489885 
L 250.56 244.819774 
L 252.589091 247.079002 
L 254.618182 235.904761 
L 256.647273 241.276524 
L 258.676364 254.608409 
L 260.705455 245.555242 
L 262.734545 250.685235 
L 264.763636 249.376832 
L 266.792727 262.468979 
L 268.821818 259.854207 
L 270.850909 257.009855 
L 272.88 250.81323 
L 274.909091 259.866397 
L 276.938182 242.597116 
L 278.967273 243.20662 
L 280.996364 238.877109 
L 283.025455 282.011711 
L 285.054545 250.102142 
L 287.083636 249.884753 
L 289.112727 234.407413 
L 291.141818 251.662473 
L 293.170909 252.501557 
L 295.2 254.482445 
L 297.229091 242.926248 
L 299.258182 245.429278 
L 301.287273 260.717671 
L 303.316364 271.002036 
L 305.345455 236.743845 
L 307.374545 260.717671 
L 309.403636 255.130551 
L 311.432727 263.129275 
L 313.461818 251.751867 
L 315.490909 264.781031 
L 317.52 228.617125 
L 319.549091 247.473148 
L 321.578182 243.625146 
L 323.607273 232.070981 
L 325.636364 253.948113 
L 327.665455 256.589297 
L 329.694545 223.43634 
L 331.723636 252.107411 
L 333.752727 255.435303 
L 335.781818 230.583791 
L 337.810909 248.235028 
L 339.84 253.834339 
L 341.869091 253.568189 
L 343.898182 253.440193 
L 345.927273 237.339128 
L 347.956364 258.545805 
L 349.985455 245.390676 
L 352.014545 246.176936 
L 354.043636 245.110304 
L 356.072727 249.783169 
L 358.101818 238.050216 
L 360.130909 243.840504 
L 362.16 243.105036 
L 364.189091 251.130172 
L 368.247273 240.604038 
L 370.276364 255.384511 
L 372.305455 240.018914 
L 374.334545 234.647151 
L 376.363636 254.608409 
L 378.392727 253.771357 
L 380.421818 265.034991 
L 382.450909 258.342637 
L 384.48 270.557098 
L 386.509091 253.135441 
L 388.538182 245.74622 
L 390.567273 245.50445 
L 392.596364 269.82163 
L 394.625455 246.227728 
L 396.654545 256.526315 
L 398.683636 239.39722 
L 400.712727 245.035132 
L 402.741818 261.440949 
L 404.770909 266.76192 
L 406.8 236.439093 
L 408.829091 265.75827 
L 410.858182 251.548699 
L 412.887273 248.679966 
L 414.916364 239.080277 
L 416.945455 268.082512 
L 418.974545 255.892431 
L 421.003636 253.212645 
L 423.032727 235.778797 
L 425.061818 240.502454 
L 427.090909 259.128897 
L 429.12 245.465848 
L 431.149091 244.043672 
L 433.178182 229.746739 
L 435.207273 234.381001 
L 437.236364 242.343156 
L 439.265455 251.243947 
L 441.294545 241.402488 
L 443.323636 235.220085 
L 445.352727 240.057516 
L 447.381818 249.250868 
L 449.410909 242.926248 
L 451.44 247.930276 
L 453.469091 262.215019 
L 455.498182 265.339743 
L 457.527273 265.465708 
L 459.556364 244.882756 
L 461.585455 221.847566 
L 463.614545 249.427624 
L 465.643636 239.39722 
L 467.672727 231.485857 
L 469.701818 257.631549 
L 471.730909 241.92463 
L 473.76 247.751488 
L 475.789091 250.634443 
L 477.818182 231.040919 
L 479.847273 244.793362 
L 481.876364 241.315126 
L 483.905455 235.205863 
L 485.934545 241.276524 
L 487.963636 240.374458 
L 489.992727 253.592569 
L 492.021818 250.532859 
L 494.050909 241.4289 
L 496.08 253.072459 
L 498.109091 268.157684 
L 498.109091 268.157684 
" style="fill:none;stroke:#ff7f0e;stroke-linecap:square;stroke-width:1.5;"/>
   </g>
   <g id="line2d_19">
    <path clip-path="url(#pdfa91ef1bb)" d="M 92.290909 212.04471 
L 94.32 221.823186 
L 96.349091 224.171808 
L 98.378182 208.082933 
L 100.407273 218.229144 
L 102.436364 202.749773 
L 104.465455 215.638752 
L 106.494545 215.778938 
L 108.523636 189.594644 
L 110.552727 215.626562 
L 112.581818 206.776563 
L 114.610909 199.334519 
L 116.64 215.880522 
L 118.669091 199.056178 
L 120.698182 175.563861 
L 122.727273 174.407835 
L 124.756364 169.074674 
L 126.785455 174.676016 
L 128.814545 136.848164 
L 130.843636 170.066134 
L 132.872727 147.17113 
L 134.901818 155.590413 
L 136.930909 155.590413 
L 138.96 153.977259 
L 140.989091 128.252125 
L 143.018182 114.867416 
L 145.047273 117.585804 
L 147.076364 123.845411 
L 149.105455 128.404501 
L 151.134545 136.517 
L 153.163636 132.417069 
L 155.192727 135.297992 
L 157.221818 111.972272 
L 159.250909 135.653536 
L 161.28 102.348203 
L 163.309091 152.784663 
L 165.338182 103.857741 
L 167.367273 132.264693 
L 169.396364 130.283805 
L 171.425455 143.032598 
L 173.454545 124.505707 
L 175.483636 122.220066 
L 177.512727 147.792825 
L 179.541818 149.672129 
L 181.570909 129.343137 
L 183.6 132.937179 
L 185.629091 128.644239 
L 187.658182 67.82183 
L 189.687273 104.493657 
L 191.716364 127.654811 
L 195.774545 86.373102 
L 197.803636 105.090971 
L 199.832727 132.656807 
L 201.861818 129.546305 
L 203.890909 107.782947 
L 205.92 109.343278 
L 207.949091 122.333841 
L 209.978182 77.128957 
L 212.007273 107.654951 
L 214.036364 121.966106 
L 216.065455 115.21077 
L 218.094545 77.699859 
L 220.123636 88.811118 
L 222.152727 122.0555 
L 224.181818 105.115351 
L 226.210909 85.497448 
L 228.24 95.69445 
L 230.269091 125.139591 
L 232.298182 124.645893 
L 234.327273 120.06039 
L 236.356364 110.867038 
L 238.385455 112.035254 
L 240.414545 126.880741 
L 242.443636 123.477676 
L 244.472727 92.16339 
L 246.501818 120.899474 
L 248.530909 114.066934 
L 250.56 109.522065 
L 252.589091 124.009977 
L 254.618182 126.968103 
L 256.647273 124.849061 
L 258.676364 117.75037 
L 260.705455 75.174481 
L 262.734545 115.539902 
L 264.763636 122.943345 
L 266.792727 93.750132 
L 268.821818 128.530465 
L 270.850909 92.214182 
L 272.88 123.552849 
L 274.909091 103.236047 
L 276.938182 113.45743 
L 278.967273 104.595241 
L 280.996364 89.256056 
L 283.025455 129.558495 
L 285.054545 87.32596 
L 287.083636 91.580298 
L 291.141818 110.359118 
L 293.170909 111.439972 
L 295.2 80.558433 
L 297.229091 121.634943 
L 299.258182 118.347684 
L 301.287273 104.786219 
L 303.316364 98.183259 
L 305.345455 128.619859 
L 307.374545 126.866519 
L 309.403636 111.565936 
L 311.432727 76.151719 
L 313.461818 141.736386 
L 315.490909 113.382258 
L 317.52 102.626543 
L 319.549091 120.200576 
L 321.578182 120.251368 
L 323.607273 99.960979 
L 325.636364 90.690422 
L 327.665455 109.940592 
L 329.694545 107.134841 
L 331.723636 86.486876 
L 333.752727 121.255018 
L 335.781818 98.016661 
L 337.810909 72.976203 
L 339.84 101.622893 
L 341.869091 70.678373 
L 343.898182 106.919483 
L 345.927273 55.554545 
L 347.956364 78.094005 
L 349.985455 99.199099 
L 352.014545 115.070584 
L 354.043636 104.849201 
L 356.072727 119.704846 
L 358.101818 105.127541 
L 360.130909 95.680229 
L 362.16 112.721962 
L 364.189091 113.000302 
L 366.218182 127.693413 
L 368.247273 106.372961 
L 370.276364 104.684635 
L 372.305455 98.284843 
L 374.334545 104.213285 
L 376.363636 122.614212 
L 378.392727 106.994655 
L 380.421818 107.427403 
L 382.450909 115.554124 
L 384.48 74.564977 
L 386.509091 128.530465 
L 388.538182 71.389461 
L 390.567273 117.00068 
L 392.596364 105.598891 
L 394.625455 113.217692 
L 396.654545 96.226751 
L 398.683636 100.607053 
L 400.712727 97.801303 
L 402.741818 114.69066 
L 404.770909 108.494035 
L 406.8 117.305432 
L 408.829091 118.181086 
L 410.858182 105.521687 
L 412.887273 109.763835 
L 414.916364 107.021067 
L 416.945455 78.996071 
L 418.974545 125.166003 
L 421.003636 82.856263 
L 423.032727 90.056538 
L 425.061818 89.560808 
L 427.090909 120.950266 
L 429.12 90.487254 
L 431.149091 86.094762 
L 433.178182 86.57627 
L 435.207273 73.979853 
L 437.236364 95.401888 
L 439.265455 128.948991 
L 441.294545 110.245344 
L 443.323636 98.093865 
L 445.352727 77.714081 
L 447.381818 114.18274 
L 449.410909 107.108429 
L 451.44 122.232257 
L 453.469091 98.219829 
L 455.498182 122.740177 
L 457.527273 80.469039 
L 459.556364 105.127541 
L 461.585455 85.369452 
L 463.614545 98.894347 
L 465.643636 102.829711 
L 467.672727 115.172168 
L 469.701818 103.833361 
L 471.730909 93.878128 
L 473.76 95.859016 
L 475.789091 93.788734 
L 477.818182 80.696587 
L 479.847273 106.474545 
L 481.876364 124.174543 
L 483.905455 57.041735 
L 485.934545 103.618003 
L 487.963636 104.505847 
L 489.992727 113.319276 
L 492.021818 82.01718 
L 494.050909 124.239557 
L 496.08 88.392592 
L 498.109091 96.379127 
L 498.109091 96.379127 
" style="fill:none;stroke:#2ca02c;stroke-linecap:square;stroke-width:1.5;"/>
   </g>
   <g id="line2d_20">
    <path clip-path="url(#pdfa91ef1bb)" d="M 140.989091 190.910474 
L 191.716364 193.570705 
L 242.443636 177.210323 
L 293.170909 183.293459 
L 343.898182 177.533725 
L 394.625455 170.758151 
L 445.352727 168.420926 
L 496.08 172.274769 
" style="fill:none;stroke:#d62728;stroke-linecap:square;stroke-width:1.5;"/>
   </g>
   <g id="patch_3">
    <path d="M 72 315 
L 72 43.2 
" style="fill:none;stroke:#000000;stroke-linecap:square;stroke-linejoin:miter;stroke-width:0.8;"/>
   </g>
   <g id="patch_4">
    <path d="M 518.4 315 
L 518.4 43.2 
" style="fill:none;stroke:#000000;stroke-linecap:square;stroke-linejoin:miter;stroke-width:0.8;"/>
   </g>
   <g id="patch_5">
    <path d="M 72 315 
L 518.4 315 
" style="fill:none;stroke:#000000;stroke-linecap:square;stroke-linejoin:miter;stroke-width:0.8;"/>
   </g>
   <g id="patch_6">
    <path d="M 72 43.2 
L 518.4 43.2 
" style="fill:none;stroke:#000000;stroke-linecap:square;stroke-linejoin:miter;stroke-width:0.8;"/>
   </g>
   <g id="text_19">
    <!-- doomrnn.cma.16.64_b40.0_2 -->
    <defs>
     <path d="M 10.6875 12.40625 
L 21 12.40625 
L 21 0 
L 10.6875 0 
z
" id="DejaVuSans-2e"/>
     <path d="M 50.984375 -16.609375 
L 50.984375 -23.578125 
L -0.984375 -23.578125 
L -0.984375 -16.609375 
z
" id="DejaVuSans-5f"/>
     <path d="M 48.6875 27.296875 
Q 48.6875 37.203125 44.609375 42.84375 
Q 40.53125 48.484375 33.40625 48.484375 
Q 26.265625 48.484375 22.1875 42.84375 
Q 18.109375 37.203125 18.109375 27.296875 
Q 18.109375 17.390625 22.1875 11.75 
Q 26.265625 6.109375 33.40625 6.109375 
Q 40.53125 6.109375 44.609375 11.75 
Q 48.6875 17.390625 48.6875 27.296875 
z
M 18.109375 46.390625 
Q 20.953125 51.265625 25.265625 53.625 
Q 29.59375 56 35.59375 56 
Q 45.5625 56 51.78125 48.09375 
Q 58.015625 40.1875 58.015625 27.296875 
Q 58.015625 14.40625 51.78125 6.484375 
Q 45.5625 -1.421875 35.59375 -1.421875 
Q 29.59375 -1.421875 25.265625 0.953125 
Q 20.953125 3.328125 18.109375 8.203125 
L 18.109375 0 
L 9.078125 0 
L 9.078125 75.984375 
L 18.109375 75.984375 
z
" id="DejaVuSans-62"/>
    </defs>
    <g transform="translate(207.336562 37.2)scale(0.12 -0.12)">
     <use xlink:href="#DejaVuSans-64"/>
     <use x="63.476562" xlink:href="#DejaVuSans-6f"/>
     <use x="124.658203" xlink:href="#DejaVuSans-6f"/>
     <use x="185.839844" xlink:href="#DejaVuSans-6d"/>
     <use x="283.251953" xlink:href="#DejaVuSans-72"/>
     <use x="324.349609" xlink:href="#DejaVuSans-6e"/>
     <use x="387.728516" xlink:href="#DejaVuSans-6e"/>
     <use x="451.107422" xlink:href="#DejaVuSans-2e"/>
     <use x="482.894531" xlink:href="#DejaVuSans-63"/>
     <use x="537.875" xlink:href="#DejaVuSans-6d"/>
     <use x="635.287109" xlink:href="#DejaVuSans-61"/>
     <use x="696.566406" xlink:href="#DejaVuSans-2e"/>
     <use x="728.353516" xlink:href="#DejaVuSans-31"/>
     <use x="791.976562" xlink:href="#DejaVuSans-36"/>
     <use x="855.599609" xlink:href="#DejaVuSans-2e"/>
     <use x="887.386719" xlink:href="#DejaVuSans-36"/>
     <use x="951.009766" xlink:href="#DejaVuSans-34"/>
     <use x="1014.632812" xlink:href="#DejaVuSans-5f"/>
     <use x="1064.632812" xlink:href="#DejaVuSans-62"/>
     <use x="1128.109375" xlink:href="#DejaVuSans-34"/>
     <use x="1191.732422" xlink:href="#DejaVuSans-30"/>
     <use x="1255.355469" xlink:href="#DejaVuSans-2e"/>
     <use x="1287.142578" xlink:href="#DejaVuSans-30"/>
     <use x="1350.765625" xlink:href="#DejaVuSans-5f"/>
     <use x="1400.765625" xlink:href="#DejaVuSans-32"/>
    </g>
   </g>
   <g id="legend_1">
    <g id="patch_7">
     <path d="M 79 109.9125 
L 184.470313 109.9125 
Q 186.470313 109.9125 186.470313 107.9125 
L 186.470313 50.2 
Q 186.470313 48.2 184.470313 48.2 
L 79 48.2 
Q 77 48.2 77 50.2 
L 77 107.9125 
Q 77 109.9125 79 109.9125 
z
" style="fill:#ffffff;opacity:0.8;stroke:#cccccc;stroke-linejoin:miter;"/>
    </g>
    <g id="line2d_21">
     <path d="M 81 56.298437 
L 101 56.298437 
" style="fill:none;stroke:#1f77b4;stroke-linecap:square;stroke-width:1.5;"/>
    </g>
    <g id="line2d_22"/>
    <g id="text_20">
     <!-- mean -->
     <g transform="translate(109 59.798437)scale(0.1 -0.1)">
      <use xlink:href="#DejaVuSans-6d"/>
      <use x="97.412109" xlink:href="#DejaVuSans-65"/>
      <use x="158.935547" xlink:href="#DejaVuSans-61"/>
      <use x="220.214844" xlink:href="#DejaVuSans-6e"/>
     </g>
    </g>
    <g id="line2d_23">
     <path d="M 81 70.976562 
L 101 70.976562 
" style="fill:none;stroke:#ff7f0e;stroke-linecap:square;stroke-width:1.5;"/>
    </g>
    <g id="line2d_24"/>
    <g id="text_21">
     <!-- min -->
     <g transform="translate(109 74.476562)scale(0.1 -0.1)">
      <use xlink:href="#DejaVuSans-6d"/>
      <use x="97.412109" xlink:href="#DejaVuSans-69"/>
      <use x="125.195312" xlink:href="#DejaVuSans-6e"/>
     </g>
    </g>
    <g id="line2d_25">
     <path d="M 81 85.654687 
L 101 85.654687 
" style="fill:none;stroke:#2ca02c;stroke-linecap:square;stroke-width:1.5;"/>
    </g>
    <g id="line2d_26"/>
    <g id="text_22">
     <!-- max -->
     <defs>
      <path d="M 54.890625 54.6875 
L 35.109375 28.078125 
L 55.90625 0 
L 45.3125 0 
L 29.390625 21.484375 
L 13.484375 0 
L 2.875 0 
L 24.125 28.609375 
L 4.6875 54.6875 
L 15.28125 54.6875 
L 29.78125 35.203125 
L 44.28125 54.6875 
z
" id="DejaVuSans-78"/>
     </defs>
     <g transform="translate(109 89.154687)scale(0.1 -0.1)">
      <use xlink:href="#DejaVuSans-6d"/>
      <use x="97.412109" xlink:href="#DejaVuSans-61"/>
      <use x="158.691406" xlink:href="#DejaVuSans-78"/>
     </g>
    </g>
    <g id="line2d_27">
     <path d="M 81 100.332812 
L 101 100.332812 
" style="fill:none;stroke:#d62728;stroke-linecap:square;stroke-width:1.5;"/>
    </g>
    <g id="line2d_28"/>
    <g id="text_23">
     <!-- best avg score -->
     <defs>
      <path d="M 44.28125 53.078125 
L 44.28125 44.578125 
Q 40.484375 46.53125 36.375 47.5 
Q 32.28125 48.484375 27.875 48.484375 
Q 21.1875 48.484375 17.84375 46.4375 
Q 14.5 44.390625 14.5 40.28125 
Q 14.5 37.15625 16.890625 35.375 
Q 19.28125 33.59375 26.515625 31.984375 
L 29.59375 31.296875 
Q 39.15625 29.25 43.1875 25.515625 
Q 47.21875 21.78125 47.21875 15.09375 
Q 47.21875 7.46875 41.1875 3.015625 
Q 35.15625 -1.421875 24.609375 -1.421875 
Q 20.21875 -1.421875 15.453125 -0.5625 
Q 10.6875 0.296875 5.421875 2 
L 5.421875 11.28125 
Q 10.40625 8.6875 15.234375 7.390625 
Q 20.0625 6.109375 24.8125 6.109375 
Q 31.15625 6.109375 34.5625 8.28125 
Q 37.984375 10.453125 37.984375 14.40625 
Q 37.984375 18.0625 35.515625 20.015625 
Q 33.0625 21.96875 24.703125 23.78125 
L 21.578125 24.515625 
Q 13.234375 26.265625 9.515625 29.90625 
Q 5.8125 33.546875 5.8125 39.890625 
Q 5.8125 47.609375 11.28125 51.796875 
Q 16.75 56 26.8125 56 
Q 31.78125 56 36.171875 55.265625 
Q 40.578125 54.546875 44.28125 53.078125 
z
" id="DejaVuSans-73"/>
     </defs>
     <g transform="translate(109 103.832812)scale(0.1 -0.1)">
      <use xlink:href="#DejaVuSans-62"/>
      <use x="63.476562" xlink:href="#DejaVuSans-65"/>
      <use x="125" xlink:href="#DejaVuSans-73"/>
      <use x="177.099609" xlink:href="#DejaVuSans-74"/>
      <use x="216.308594" xlink:href="#DejaVuSans-20"/>
      <use x="248.095703" xlink:href="#DejaVuSans-61"/>
      <use x="309.375" xlink:href="#DejaVuSans-76"/>
      <use x="368.554688" xlink:href="#DejaVuSans-67"/>
      <use x="432.03125" xlink:href="#DejaVuSans-20"/>
      <use x="463.818359" xlink:href="#DejaVuSans-73"/>
      <use x="515.917969" xlink:href="#DejaVuSans-63"/>
      <use x="570.898438" xlink:href="#DejaVuSans-6f"/>
      <use x="632.080078" xlink:href="#DejaVuSans-72"/>
      <use x="673.162109" xlink:href="#DejaVuSans-65"/>
     </g>
    </g>
   </g>
  </g>
 </g>
 <defs>
  <clipPath id="pdfa91ef1bb">
   <rect height="271.8" width="446.4" x="72" y="43.2"/>
  </clipPath>
 </defs>
</svg>
